<?xml version="1.0" encoding="utf-8"?>
<!-- Generator: Adobe Illustrator 17.1.0, SVG Export Plug-In . SVG Version: 6.00 Build 0)  -->
<!DOCTYPE svg PUBLIC "-//W3C//DTD SVG 1.1//EN" "http://www.w3.org/Graphics/SVG/1.1/DTD/svg11.dtd">
<svg version="1.1" id="Layer_1" xmlns="http://www.w3.org/2000/svg" xmlns:xlink="http://www.w3.org/1999/xlink" x="0px" y="0px"
	 viewBox="0 0 51.6 53" enable-background="new 0 0 51.6 53" xml:space="preserve">
<path fill="#FFFFFF" d="M51.1,45.9L38.3,32.2c1.9-3.2,3.1-7,3.1-11.1C41.4,9.5,32.1,0,20.7,0S0,9.5,0,21.1s9.3,21.1,20.7,21.1
	c4.1,0,7.9-1.2,11.1-3.3l12.6,13.5c0.7,0.8,1.9,0.8,2.6,0.1l4.1-4C51.8,47.8,51.8,46.6,51.1,45.9z M4.4,21.1
	c0-9.3,7.3-16.8,16.4-16.8s16.4,7.5,16.4,16.8c0,4.3-1.6,8.1-4.1,11.1l-2.1,2c-2.8,2.3-6.3,3.6-10.1,3.6
	C11.7,37.9,4.4,30.4,4.4,21.1z"/>
</svg>
