<?xml version="1.0" encoding="utf-8"?>
<!-- Generator: Adobe Illustrator 17.1.0, SVG Export Plug-In . SVG Version: 6.00 Build 0)  -->
<!DOCTYPE svg PUBLIC "-//W3C//DTD SVG 1.1//EN" "http://www.w3.org/Graphics/SVG/1.1/DTD/svg11.dtd">
<svg version="1.1" id="Layer_1" xmlns="http://www.w3.org/2000/svg" xmlns:xlink="http://www.w3.org/1999/xlink" x="0px" y="0px"
	 viewBox="0 0 244.5 33.5" enable-background="new 0 0 244.5 33.5" xml:space="preserve">
<g>
	<g>
		<path fill="#002F43" d="M65.4,26.6v-7.2h-7.2v7.2h-3.1V10.2h3.1v6.6h7.2v-6.6h3.1v16.5H65.4z"/>
		<path fill="#002F43" d="M74.3,21.3v0.2c0,1.8,0.3,3,3.3,3c1.3,0,2.9-0.1,4.5-0.3v2.2c-0.9,0.2-2.5,0.5-4.6,0.5
			c-4.5,0-6.1-1.7-6.1-6.1v-0.8c0-4.2,1.9-6.2,5.6-6.2c4.2,0,5.6,2.7,5.6,6.5v1H74.3z M79.7,19.2c0-1.4-0.3-3-2.7-3
			c-2.3,0-2.7,1.6-2.7,3v0.2h5.4V19.2z"/>
		<path fill="#002F43" d="M85.5,26.6V9.4h2.9v17.2H85.5z"/>
		<path fill="#002F43" d="M95.5,26.9c-1.7,0-3.7-0.3-4.3-0.5v-2.1c0.6,0,2.5,0.3,4.1,0.3c1.8,0,2.3-0.4,2.3-1.3
			c0-0.9-0.4-1.1-2.2-1.8l-1-0.4c-2.4-0.9-3.4-2-3.4-3.9c0-2.5,1.7-3.4,5-3.4c1.4,0,3.3,0.3,3.9,0.5v2c-1.4-0.1-2.8-0.2-3.9-0.2
			c-1.5,0-2.1,0.1-2.1,1c0,0.8,0.4,1,2,1.6l1,0.4c2.7,1.1,3.6,1.9,3.6,4C100.6,25.5,99,26.9,95.5,26.9z"/>
		<path fill="#002F43" d="M105.5,21.3v0.2c0,1.8,0.3,3,3.3,3c1.3,0,2.9-0.1,4.5-0.3v2.2c-0.9,0.2-2.5,0.5-4.6,0.5
			c-4.5,0-6.1-1.7-6.1-6.1v-0.8c0-4.2,1.9-6.2,5.6-6.2c4.2,0,5.6,2.7,5.6,6.5v1H105.5z M110.9,19.2c0-1.4-0.3-3-2.7-3
			c-2.3,0-2.7,1.6-2.7,3v0.2h5.4V19.2z"/>
		<path fill="#002F43" d="M124.2,26.6V26c-0.8,0.5-2,1-3.5,1c-2.9,0-4.7-1.8-4.7-5.6v-1.8c0-4.4,2.2-5.8,5.4-5.8
			c0.9,0,1.8,0.1,2.6,0.2V9.4h2.9v17.2H124.2z M124,16.5c-0.8-0.1-1.7-0.2-2.3-0.2c-1.8,0-2.7,0.5-2.7,3.3v1.8
			c0,2.2,0.7,3.1,2.5,3.1c0.9,0,1.8-0.2,2.5-0.6V16.5z"/>
		<path fill="#002F43" d="M130.3,12.2V9.4h3v2.8H130.3z M130.3,26.6V14.2h2.9v12.5H130.3z"/>
		<path fill="#002F43" d="M139.5,17.3v9.4h-2.9V14.2h2.8v1c1.2-1,2.7-1.3,4.3-1.3v2.7C142.1,16.5,140.4,16.8,139.5,17.3z"/>
		<path fill="#002F43" d="M147.6,21.3v0.2c0,1.8,0.3,3,3.3,3c1.3,0,2.9-0.1,4.5-0.3v2.2c-0.9,0.2-2.5,0.5-4.6,0.5
			c-4.5,0-6.1-1.7-6.1-6.1v-0.8c0-4.2,1.9-6.2,5.6-6.2c4.2,0,5.6,2.7,5.6,6.5v1H147.6z M153.1,19.2c0-1.4-0.3-3-2.7-3
			c-2.4,0-2.7,1.6-2.7,3v0.2h5.4V19.2z"/>
		<path fill="#002F43" d="M166,26.6l-4.4-5.9v5.9h-2.9V9.4h2.9v10.3l4.4-5.6h3.3l-4.8,6l5,6.5H166z"/>
		<path fill="#002F43" d="M176,27c-2.5,0-3.4-1-3.4-3.6v-6.9l-2.3-0.2v-2.1h2.3V11h2.9v3.2h3v2.3h-3v6.8c0,1.2,0.1,1.4,1.2,1.4
			c0.6,0,1.5,0,1.9-0.1v2C178.2,26.7,177.2,27,176,27z"/>
		<path fill="#002F43" d="M185.7,27c-3.6,0-5.6-1.9-5.6-5.8v-1.5c0-3.9,2-5.8,5.6-5.8c3.6,0,5.6,1.9,5.6,5.8v1.5
			C191.3,25.1,189.3,27,185.7,27z M188.4,19.6c0-2.4-0.8-3.3-2.7-3.3c-1.9,0-2.7,0.9-2.7,3.3v1.5c0,2.4,0.8,3.3,2.7,3.3
			c1.9,0,2.7-0.9,2.7-3.3V19.6z"/>
		<path fill="#002F43" d="M197,17.3v9.4H194V14.2h2.8v1c1.2-1,2.7-1.3,4.3-1.3v2.7C199.6,16.5,197.9,16.8,197,17.3z"/>
		<path fill="#002F43" d="M209.7,26.6v-0.8c-0.8,0.5-2.2,1.1-3.9,1.1c-2.3,0-3.7-1.1-3.7-3.6v-0.5c0-3.3,2.4-3.8,5.9-3.8h1.5v-0.8
			c0-1.8-0.4-2.1-2.6-2.1c-1.2,0-2.5,0.1-3.9,0.2v-2c0.5-0.2,2.4-0.7,4.4-0.7c4,0,5,1.4,5,4.5v8.2H209.7z M209.6,21H208
			c-2.1,0-3.1,0.2-3.1,1.9v0.5c0,1.1,0.7,1.5,1.8,1.5c1.2,0,2.4-0.5,2.9-0.8V21z"/>
		<path fill="#002F43" d="M219.8,27c-2.5,0-3.4-1-3.4-3.6v-6.9l-2.3-0.2v-2.1h2.3V11h2.9v3.2h3v2.3h-3v6.8c0,1.2,0.1,1.4,1.2,1.4
			c0.6,0,1.5,0,1.9-0.1v2C222,26.7,220.9,27,219.8,27z"/>
		<path fill="#002F43" d="M226.7,21.3v0.2c0,1.8,0.3,3,3.3,3c1.3,0,2.9-0.1,4.5-0.3v2.2c-0.9,0.2-2.5,0.5-4.6,0.5
			c-4.5,0-6.1-1.7-6.1-6.1v-0.8c0-4.2,1.9-6.2,5.6-6.2c4.2,0,5.6,2.7,5.6,6.5v1H226.7z M232.2,19.2c0-1.4-0.3-3-2.7-3
			c-2.4,0-2.7,1.6-2.7,3v0.2h5.4V19.2z"/>
		<path fill="#002F43" d="M242,27c-2.5,0-3.4-1-3.4-3.6v-6.9l-2.3-0.2v-2.1h2.3V11h2.9v3.2h3v2.3h-3v6.8c0,1.2,0.1,1.4,1.2,1.4
			c0.6,0,1.5,0,1.9-0.1v2C244.2,26.7,243.1,27,242,27z"/>
	</g>
</g>
<path fill="#009DB1" d="M22.6,12.7c1.9,0.8,2.9-2.2,2.9-4.5c0-1.4,0-6.3,0-6.3h-3.4c-1.7,0-2.9,1.3-2.9,2.9v6.3
	C19.2,11.2,21.8,12.4,22.6,12.7z"/>
<path fill="#009DB1" d="M39.6,2H27.9c0,0,0.1,3.1,0.4,5.4c0.1,1,0.3,2,1.1,2.8c0.6,0.7,1.3,1.1,2.4,1.6c1.1,0.5,5,2,6.1,2.5
	c1.1,0.4,1,0.8,0.8,1.5c-0.3,0.7-0.5,0.9-1.6,0.6c-1.1-0.3-5.8-1.9-6.9-2.1c-0.6-0.2-1-0.2-1.5,0.5c-1.1,1.4-0.8,4.2,0,6.6
	c0.4,1,1.8,5,2.2,6.1c0.4,1.1-0.2,1.3-0.6,1.5c-0.7,0.3-1.1,0.3-1.6-0.6c-0.5-1-3.1-6.1-4.4-8.6c-1.3-2.5-2.4-3.8-5.1-5.4v16.3
	c0,1.6,1.3,2.9,2.9,2.9h17.5c1.6,0,2.9-1.3,2.9-2.9V4.9C42.5,3.3,41.2,2,39.6,2z M34.5,7.7l-1.7,1.5C32.2,9.6,31.5,9.5,31,9
	l-0.4-0.4c-0.5-0.5-0.4-1.3,0.2-1.7l1.7-1.5c0.5-0.5,1.3-0.4,1.7,0.2L34.7,6C35.1,6.5,35,7.2,34.5,7.7z"/>
<path fill="#002F43" d="M19.2,11.2c0,0-1.4-0.7-3.1-1.6C11.5,7.2,2.8,2.6,1.8,2.1c-1-0.5-1.2-0.2-1.5,0.4C-0.1,3.1-0.2,3.5,0.5,4
	c0.5,0.3,2.6,1.7,4,2.7c1.1,0.8,2.1,1.9,2.4,3l3.8,15.8c0.2,0.9,0.8,0.9,1.3,0.8c0.6-0.1,1.1-0.1,1-1.3l-0.5-12.2
	c-0.1-1.2,0.8-1.7,1.8-1.1l4.9,2.6V11.2z"/>
<path fill="#002F43" d="M10.4,4.5l0.5,0.3c0.6,0.3,1.4,0.1,1.7-0.6l1-2.1c0.3-0.6,0-1.4-0.6-1.7l-0.5-0.3c-0.6-0.3-1.4-0.1-1.7,0.6
	l-1,2.1C9.5,3.4,9.7,4.2,10.4,4.5z"/>
</svg>
