<?xml version="1.0" encoding="utf-8"?>
<!-- Generator: Adobe Illustrator 17.1.0, SVG Export Plug-In . SVG Version: 6.00 Build 0)  -->
<!DOCTYPE svg PUBLIC "-//W3C//DTD SVG 1.1//EN" "http://www.w3.org/Graphics/SVG/1.1/DTD/svg11.dtd">
<svg version="1.1" id="Layer_1" xmlns="http://www.w3.org/2000/svg" xmlns:xlink="http://www.w3.org/1999/xlink" x="0px" y="0px"
	 viewBox="0 0 412.9 392.1" enable-background="new 0 0 412.9 392.1" xml:space="preserve">
<g>
	<g>
		<g>
			<path fill="#929497" d="M120.2,350c0.4-1.3,1.9-2.1,3.2-1.7l0,0c1.4,0.4,2.1,1.9,1.7,3.2l0,0c-0.4,1.4-1.9,2.1-3.3,1.7l0,0
				c0,0-0.1,0-0.1-0.1l0,0C120.5,352.6,119.8,351.3,120.2,350z M135.2,353.6c0.3-1.4,1.6-2.3,3-2l0,0c1.4,0.3,2.3,1.7,1.9,3l0,0
				c-0.3,1.4-1.6,2.3-3,2l0,0c-0.1-0.1-0.3-0.1-0.4-0.1l0,0C135.6,356.1,134.9,354.8,135.2,353.6z M107.6,344.7L107.6,344.7
				c-0.9-1.1-0.8-2.7,0.3-3.6l0,0c1-1,2.7-0.8,3.6,0.3l0,0c0.9,1.1,0.8,2.7-0.3,3.6l0,0c-0.7,0.6-1.7,0.8-2.6,0.5l0,0
				C108.3,345.3,107.9,345,107.6,344.7z M150.3,356.7c0.3-1.4,1.7-2.3,3-1.9l0,0c1.4,0.3,2.3,1.6,2,3l0,0c-0.3,1.4-1.7,2.3-3,1.9
				l0,0c-0.2,0-0.3-0.1-0.4-0.1l0,0C150.7,359.2,150,358,150.3,356.7z M165.3,360c0.3-1.4,1.7-2.3,3-2l0,0c1.4,0.3,2.3,1.7,2,3.1
				l0,0c-0.3,1.4-1.6,2.2-3.1,1.9l0,0c-0.1,0-0.2-0.1-0.4-0.2l0,0C165.8,362.4,165.1,361.2,165.3,360z M180.4,363.2
				c0.3-1.4,1.7-2.3,3-2l0,0l0,0l0,0c1.4,0.3,2.3,1.7,2,3.1l0,0c-0.3,1.4-1.7,2.2-3.1,1.9l0,0c-0.1-0.1-0.3,0-0.4-0.1l0,0
				C180.8,365.7,180.1,364.4,180.4,363.2z M195.4,366.5c0.3-1.4,1.7-2.2,3.1-1.9l0,0l0,0l0,0c1.4,0.3,2.3,1.7,1.9,3.1l0,0
				c-0.3,1.4-1.7,2.2-3.1,1.9l0,0c-0.1-0.1-0.2-0.1-0.4-0.1l0,0C195.8,369,195.2,367.8,195.4,366.5z M102.9,328.5
				c0.1-1.4,1.3-2.5,2.7-2.4l0,0c1.4,0.1,2.5,1.3,2.4,2.7l0,0c-0.1,1.4-1.3,2.5-2.7,2.4l0,0c-0.3,0-0.5,0-0.8-0.1l0,0
				C103.5,330.7,102.8,329.6,102.9,328.5z M210.4,369.9c0.3-1.4,1.7-2.2,3.1-1.9l0,0c1.4,0.3,2.2,1.6,1.9,3.1l0,0
				c-0.4,1.3-1.7,2.2-3.1,1.9l0,0c-0.1,0-0.2-0.1-0.3-0.1l0,0C210.8,372.5,210.2,371.2,210.4,369.9z M225.4,373.5
				c0.3-1.4,1.8-2.2,3.1-1.9l0,0c1.4,0.3,2.2,1.7,1.9,3l0,0c-0.3,1.4-1.7,2.2-3.1,1.9l0,0c-0.1,0-0.2-0.1-0.3-0.1l0,0
				C225.8,376,225.2,374.8,225.4,373.5z M240.4,377.2c0.4-1.3,1.7-2.2,3.1-1.8l0,0c1.4,0.3,2.2,1.7,1.9,3.1l0,0
				c-0.4,1.3-1.7,2.2-3.1,1.8l0,0c-0.1,0-0.2-0.1-0.3-0.1l0,0C240.8,379.7,240.1,378.5,240.4,377.2z M107.9,316.1
				c-1.3-0.7-1.7-2.2-1-3.5l0,0c0.6-1.2,2.2-1.7,3.5-1l0,0c1.2,0.6,1.7,2.2,1.1,3.4l0,0c-0.7,1.2-2,1.6-3.2,1.2l0,0
				C108.1,316.1,108,316.1,107.9,316.1z M118.8,305.9c-0.2-1.4,0.8-2.7,2.2-2.9l0,0c1.4-0.2,2.7,0.8,2.9,2.1l0,0
				c0.2,1.4-0.8,2.7-2.2,2.9l0,0c-0.4,0.1-0.9,0-1.3-0.2l0,0C119.6,307.6,118.9,306.9,118.8,305.9z M134.2,305.9
				c0.1-1.4,1.4-2.5,2.8-2.4l0,0c1.4,0.1,2.5,1.4,2.4,2.8l0,0c-0.1,1.4-1.4,2.4-2.8,2.3l0,0c-0.3,0-0.5-0.1-0.7-0.2l0,0
				C134.7,308,134.1,307,134.2,305.9z M149.5,307.6c0.2-1.4,1.5-2.3,2.9-2.1l0,0c1.4,0.2,2.3,1.5,2.1,2.9l0,0
				c-0.2,1.4-1.5,2.3-2.9,2.1l0,0c-0.2,0-0.4-0.1-0.5-0.2l0,0C150,309.9,149.4,308.8,149.5,307.6z M164.8,309.9
				c0.3-1.4,1.6-2.3,3-2.1l0,0c1.4,0.2,2.3,1.5,2.1,2.9l0,0c-0.2,1.4-1.5,2.4-2.9,2.1l0,0c-0.2,0-0.4-0.1-0.5-0.1l0,0
				C165.3,312.3,164.6,311.1,164.8,309.9z M180,312.4c0.3-1.4,1.6-2.3,3-2.1l0,0c1.4,0.2,2.4,1.5,2.1,3l0,0c-0.2,1.4-1.6,2.3-3,2.1
				l0,0c-0.1-0.1-0.3-0.1-0.5-0.1l0,0C180.5,314.8,179.8,313.6,180,312.4z M195.3,315.1c0.2-1.4,1.6-2.3,2.9-2l0,0
				c1.4,0.2,2.3,1.6,2.1,3l0,0c-0.3,1.4-1.6,2.3-3,2.1l0,0c-0.2-0.1-0.4-0.1-0.5-0.1l0,0C195.7,317.5,195.1,316.3,195.3,315.1z
				 M210.4,317.8c0.3-1.4,1.6-2.3,3-2.1l0,0c1.4,0.3,2.3,1.6,2.1,3l0,0c-0.3,1.4-1.6,2.3-3,2.1l0,0c-0.2,0-0.3-0.1-0.4-0.1l0,0
				C210.9,320.2,210.2,319,210.4,317.8z M225.6,320.6c0.3-1.4,1.6-2.3,3-2.1l0,0c1.4,0.3,2.3,1.6,2,3l0,0c-0.2,1.4-1.6,2.3-3,2.1
				l0,0c-0.1-0.1-0.3-0.1-0.5-0.2l0,0C226.1,323,225.4,321.8,225.6,320.6z M240.8,323.4c0.3-1.4,1.6-2.3,3-2l0,0
				c1.4,0.2,2.4,1.6,2.1,3l0,0c-0.3,1.4-1.6,2.3-3,2.1l0,0l0,0l0,0c-0.1-0.1-0.3-0.1-0.5-0.1l0,0
				C241.3,325.8,240.6,324.6,240.8,323.4z M256,326.3c0.3-1.4,1.6-2.3,3-2l0,0c1.4,0.2,2.3,1.6,2,2.9l0,0c-0.3,1.4-1.6,2.3-3,2.1
				l0,0l0,0l0,0c-0.1-0.1-0.3-0.1-0.4-0.1l0,0C256.5,328.7,255.8,327.5,256,326.3z M271.2,329.2c0.3-1.4,1.6-2.3,3-2l0,0
				c1.4,0.3,2.3,1.6,2,3l0,0c-0.3,1.4-1.6,2.3-3,2l0,0c-0.2,0-0.3-0.1-0.4-0.1l0,0C271.7,331.6,270.9,330.4,271.2,329.2z
				 M286.3,332.1c0.3-1.4,1.6-2.3,3-2l0,0c1.4,0.3,2.3,1.6,2.1,3l0,0c-0.3,1.4-1.6,2.3-3,2l0,0c-0.2,0-0.3-0.1-0.4-0.1l0,0
				C286.8,334.5,286.1,333.3,286.3,332.1z M301.5,335c0.3-1.4,1.6-2.3,3-2l0,0c1.4,0.3,2.3,1.6,2,3l0,0c-0.3,1.4-1.6,2.3-3,2l0,0
				c-0.2,0-0.3-0.1-0.5-0.1l0,0C302,337.4,301.3,336.2,301.5,335z M316.7,337.9c0.3-1.4,1.6-2.3,3-2l0,0c1.4,0.3,2.3,1.6,2.1,3l0,0
				c-0.3,1.4-1.6,2.3-3,2l0,0c-0.2,0-0.3-0.1-0.4-0.1l0,0C317.2,340.4,316.5,339.2,316.7,337.9z M331.9,340.9c0.3-1.4,1.6-2.3,3-2
				l0,0c1.4,0.2,2.3,1.6,2,2.9l0,0c-0.2,1.4-1.6,2.3-3,2.1l0,0l0,0l0,0c-0.2-0.1-0.4-0.1-0.5-0.1l0,0
				C332.3,343.3,331.7,342.1,331.9,340.9z M347.1,343.6c0-1.4,1.1-2.5,2.6-2.6l0,0c1.4,0,2.6,1.1,2.6,2.5l0,0c0,1.4-1.1,2.5-2.5,2.6
				l0,0c-0.4,0-0.7-0.1-1-0.2l0,0C347.8,345.6,347.1,344.6,347.1,343.6z M362.1,340.7c-0.7-1.2-0.4-2.8,0.8-3.5l0,0
				c1.2-0.7,2.8-0.4,3.5,0.8l0,0c0.8,1.2,0.4,2.7-0.8,3.5l0,0c-0.7,0.5-1.6,0.5-2.3,0.2l0,0C362.9,341.5,362.4,341.1,362.1,340.7z
				 M373.7,330.7c-1.2-0.8-1.5-2.4-0.7-3.6l0,0c0.8-1.2,2.3-1.5,3.5-0.7l0,0c1.2,0.8,1.5,2.3,0.7,3.5l0,0c-0.7,1-1.9,1.4-3,1l0,0
				C374,330.8,373.8,330.7,373.7,330.7z M379.3,313.9L379.3,313.9c0.5-1.4,1.9-2.1,3.3-1.6l0,0c1.3,0.5,2.1,1.9,1.6,3.3l0,0
				c-0.5,1.3-1.9,2.1-3.3,1.6l0,0c0,0,0,0-0.1,0l0,0C379.5,316.5,378.8,315.2,379.3,313.9z M382.7,299.4c0.2-1.4,1.5-2.4,2.9-2.1
				l0,0c1.4,0.2,2.3,1.5,2.1,2.9l0,0c-0.2,1.4-1.5,2.3-2.9,2.1l0,0c-0.2,0-0.4-0.1-0.5-0.2l0,0C383.2,301.7,382.5,300.5,382.7,299.4
				z M383.9,284.4c0-1.4,1.2-2.5,2.6-2.5l0,0c1.4,0,2.5,1.2,2.5,2.6l0,0c0,1.4-1.2,2.5-2.6,2.5l0,0c-0.3,0-0.6-0.1-0.9-0.2l0,0
				C384.5,286.4,383.9,285.5,383.9,284.4z M383,269.4L383,269.4c-0.2-1.4,0.8-2.7,2.2-2.9l0,0c1.4-0.2,2.7,0.8,2.8,2.2l0,0
				c0.2,1.5-0.8,2.7-2.2,2.9l0,0c-0.4,0.1-0.9,0-1.3-0.2l0,0C383.8,271.1,383.1,270.4,383,269.4z M380.1,254.6
				c-0.4-1.4,0.4-2.8,1.8-3.1l0,0c1.4-0.4,2.8,0.4,3.2,1.8l0,0l0,0l0,0c0.4,1.4-0.4,2.7-1.8,3.1l0,0c-0.6,0.2-1.1,0.1-1.6-0.1l0,0
				C380.9,256.1,380.4,255.5,380.1,254.6z M375.1,240.6L375.1,240.6c-0.6-1.3,0-2.8,1.2-3.4l0,0c1.3-0.6,2.8,0,3.4,1.3l0,0
				c0.6,1.3,0.1,2.8-1.3,3.4l0,0c-0.6,0.3-1.3,0.3-2,0.1l0,0C375.9,241.6,375.4,241.2,375.1,240.6z M367.5,227.8
				c-0.8-1.1-0.6-2.8,0.5-3.6l0,0c1.1-0.8,2.7-0.6,3.6,0.5l0,0c0.8,1.1,0.6,2.7-0.5,3.6l0,0c-0.8,0.5-1.7,0.7-2.5,0.3l0,0
				C368.2,228.5,367.8,228.2,367.5,227.8z M358.1,215.7c-0.8-1.1-0.6-2.7,0.5-3.6l0,0c1.1-0.9,2.7-0.7,3.6,0.4l0,0
				c0.9,1.1,0.7,2.7-0.4,3.6l0,0c-0.8,0.6-1.7,0.7-2.5,0.3l0,0C358.8,216.3,358.4,216,358.1,215.7z M348.6,203.6
				c-0.8-1.1-0.7-2.7,0.4-3.6l0,0c1.1-0.8,2.7-0.7,3.6,0.4l0,0c0.8,1.1,0.7,2.7-0.4,3.6l0,0c-0.8,0.6-1.7,0.7-2.5,0.3l0,0
				C349.3,204.2,348.9,203.9,348.6,203.6z M339,191.5c-0.9-1.1-0.7-2.7,0.4-3.6l0,0c1.1-0.9,2.7-0.7,3.6,0.4l0,0
				c0.8,1.1,0.6,2.7-0.5,3.6l0,0c-0.7,0.6-1.7,0.7-2.5,0.4l0,0C339.7,192.1,339.3,191.8,339,191.5z M329.5,179.3
				c-0.8-1.1-0.7-2.7,0.5-3.6l0,0c1.1-0.9,2.7-0.7,3.6,0.4l0,0c0.8,1.1,0.6,2.7-0.5,3.6l0,0c-0.7,0.6-1.7,0.7-2.5,0.3l0,0
				C330.2,179.9,329.8,179.7,329.5,179.3z M320.1,167.1c-0.9-1.1-0.6-2.7,0.5-3.6l0,0c1.2-0.9,2.7-0.6,3.6,0.5l0,0
				c0.8,1.1,0.6,2.7-0.5,3.6l0,0c-0.7,0.5-1.6,0.7-2.4,0.4l0,0C320.8,167.8,320.4,167.4,320.1,167.1z M310.9,154.6
				c-0.9-1.1-0.6-2.8,0.6-3.6l0,0c1.1-0.8,2.8-0.6,3.6,0.6l0,0c0.8,1.1,0.6,2.8-0.6,3.6l0,0c-0.7,0.5-1.7,0.6-2.4,0.3l0,0
				C311.6,155.4,311.2,155,310.9,154.6z M393.3,178.9c-0.9-1.1-0.7-2.7,0.3-3.6l0,0c1.1-0.9,2.7-0.7,3.6,0.4l0,0
				c0.9,1.1,0.7,2.7-0.3,3.6l0,0c-0.8,0.6-1.8,0.7-2.6,0.4l0,0C393.9,179.5,393.5,179.2,393.3,178.9z M302.1,141.8
				c-0.8-1.2-0.4-2.8,0.8-3.5l0,0c1.2-0.7,2.7-0.4,3.5,0.8l0,0c0.8,1.2,0.4,2.8-0.8,3.5l0,0c-0.7,0.5-1.6,0.5-2.3,0.3l0,0
				C302.8,142.6,302.4,142.2,302.1,141.8z M383.5,166.9C383.5,166.9,383.5,166.9,383.5,166.9L383.5,166.9c-0.9-1.1-0.7-2.7,0.4-3.6
				l0,0c1.1-0.9,2.7-0.7,3.6,0.4l0,0c0.9,1.1,0.7,2.7-0.4,3.6l0,0c-0.7,0.6-1.7,0.7-2.5,0.4l0,0
				C384.1,167.6,383.7,167.3,383.5,166.9z M297,125.9c0.1-1.4,1.2-2.5,2.6-2.5l0,0c1.4,0.1,2.5,1.3,2.5,2.7l0,0
				c-0.1,1.4-1.3,2.5-2.7,2.5l0,0c-0.3,0-0.6-0.1-0.8-0.2l0,0C297.6,128,296.9,127.1,297,125.9z M373.7,155
				c-0.9-1.1-0.7-2.7,0.4-3.6l0,0c1.1-0.9,2.7-0.7,3.6,0.4l0,0c0.9,1.1,0.7,2.7-0.4,3.6l0,0c-0.7,0.6-1.7,0.7-2.5,0.4l0,0
				C374.4,155.6,374,155.3,373.7,155z M364.1,143L364.1,143L364.1,143c-0.9-1.1-0.7-2.7,0.4-3.6l0,0c1.1-0.9,2.7-0.7,3.6,0.4l0,0
				c0.9,1.1,0.7,2.7-0.4,3.6l0,0c-0.7,0.6-1.7,0.7-2.5,0.4l0,0C364.7,143.6,364.4,143.3,364.1,143z M304.6,114.5
				c-0.9-1.1-0.8-2.7,0.3-3.6l0,0c1.1-0.9,2.7-0.7,3.6,0.3l0,0c0.9,1.1,0.7,2.7-0.3,3.6l0,0c-0.7,0.6-1.7,0.8-2.6,0.4l0,0
				C305.3,115.1,304.9,114.9,304.6,114.5z M354.4,130.9L354.4,130.9L354.4,130.9c-0.9-1.1-0.7-2.7,0.4-3.6l0,0
				c1.1-0.9,2.7-0.7,3.6,0.4l0,0c0.8,1.1,0.7,2.7-0.4,3.6l0,0c-0.8,0.6-1.7,0.7-2.6,0.4l0,0C355.1,131.6,354.7,131.3,354.4,130.9z
				 M344.9,118.8c-0.9-1.1-0.7-2.7,0.4-3.6l0,0c1.1-0.8,2.7-0.6,3.6,0.5l0,0c0.9,1.1,0.7,2.7-0.5,3.6l0,0c-0.7,0.6-1.7,0.7-2.5,0.4
				l0,0C345.6,119.4,345.2,119.2,344.9,118.8z M317.8,106.6c-0.3-1.3,0.6-2.7,2-3l0,0c1.4-0.3,2.7,0.6,3,1.9l0,0
				c0.3,1.4-0.6,2.8-1.9,3.1l0,0c-0.5,0.1-1.1,0-1.5-0.1l0,0C318.6,108.1,318,107.5,317.8,106.6z M334.4,109.7
				c-1.3-0.5-1.9-2-1.4-3.3l0,0c0.6-1.3,2.1-1.9,3.4-1.4l0,0c1.3,0.6,1.9,2.1,1.4,3.3l0,0C337.2,109.6,335.8,110.3,334.4,109.7
				L334.4,109.7C334.4,109.7,334.4,109.7,334.4,109.7z"/>
		</g>
	</g>
	<g>
		<g>
			<g>
				<path fill="#929497" d="M110.7,364.1c-1.2-0.6-1.7-1.9-1.1-3.1l0,0c0.5-1.1,1.9-1.6,3.1-1.1l0,0c1.2,0.5,1.6,1.9,1.1,3l0,0
					C113.2,364.1,111.9,364.6,110.7,364.1L110.7,364.1C110.7,364.1,110.7,364.1,110.7,364.1z M124,366.2c0.3-1.3,1.5-2.1,2.8-1.8
					l0,0c1.2,0.3,2,1.4,1.8,2.7l0,0c-0.3,1.2-1.5,2.1-2.7,1.8l0,0c-0.1,0-0.3,0-0.4-0.1l0,0C124.4,368.4,123.8,367.2,124,366.2z
					 M97.4,354.8c-0.8-0.9-0.8-2.4,0.2-3.2l0,0c1-0.9,2.4-0.8,3.3,0.1l0,0c0.8,0.9,0.8,2.4-0.1,3.2l0,0c-0.7,0.6-1.6,0.7-2.4,0.4
					l0,0C98,355.2,97.7,355.1,97.4,354.8z M139.1,369.2c0.3-1.2,1.5-2.1,2.7-1.8l0,0c1.2,0.3,2.1,1.5,1.8,2.7l0,0
					c-0.3,1.2-1.5,2.1-2.7,1.8l0,0c-0.1,0-0.2-0.1-0.3-0.1l0,0C139.5,371.4,138.9,370.3,139.1,369.2z M154.2,372.4
					c0.3-1.3,1.5-2.1,2.7-1.8l0,0c1.2,0.3,2,1.5,1.7,2.7l0,0c-0.3,1.2-1.5,2.1-2.7,1.8l0,0c-0.1,0-0.2-0.1-0.3-0.1l0,0
					C154.6,374.6,153.9,373.5,154.2,372.4z M169.2,375.6c0.3-1.3,1.5-2,2.7-1.8l0,0c1.3,0.3,2,1.5,1.8,2.7l0,0
					c-0.3,1.3-1.5,2-2.7,1.8l0,0c-0.1-0.1-0.3,0-0.4-0.1l0,0C169.6,377.8,169,376.7,169.2,375.6z M184.3,378.9
					c0.3-1.2,1.5-2,2.7-1.7l0,0c1.3,0.3,2,1.5,1.8,2.7l0,0c-0.3,1.3-1.5,2-2.8,1.8l0,0c-0.1,0-0.2-0.1-0.3-0.1l0,0
					C184.6,381.1,184,380,184.3,378.9z M89.8,340.4c-0.3-1.2,0.4-2.5,1.7-2.8l0,0c1.2-0.3,2.5,0.5,2.8,1.7l0,0
					c0.3,1.2-0.4,2.5-1.7,2.8l0,0c-0.5,0.1-1,0.1-1.4-0.1l0,0C90.5,341.7,90,341.1,89.8,340.4z M89,324.3c0.2-1.3,1.3-2.2,2.6-2l0,0
					c1.3,0.1,2.2,1.2,2,2.5l0,0c-0.2,1.3-1.3,2.1-2.6,2l0,0c-0.2,0-0.4-0.1-0.5-0.2l0,0C89.5,326.3,88.9,325.4,89,324.3z M94,311.8
					c-1.2-0.5-1.7-1.8-1.2-3l0,0c0.5-1.2,1.8-1.7,3-1.2l0,0c1.1,0.5,1.7,1.9,1.2,3l0,0C96.6,311.7,95.3,312.3,94,311.8L94,311.8
					C94.1,311.8,94.1,311.8,94,311.8z M102.2,299c-0.8-1-0.6-2.5,0.4-3.3l0,0l0,0l0,0c1-0.8,2.5-0.6,3.3,0.4l0,0
					c0.8,1,0.6,2.5-0.4,3.2l0,0c-0.7,0.5-1.6,0.6-2.3,0.3l0,0C102.8,299.5,102.5,299.3,102.2,299z M115.8,292
					c-0.2-1.2,0.6-2.4,1.9-2.7l0,0c1.2-0.2,2.4,0.6,2.7,1.9l0,0c0.2,1.2-0.6,2.4-1.9,2.7l0,0c-0.4,0.1-0.9,0-1.3-0.1l0,0
					C116.5,293.5,115.9,292.8,115.8,292z M131.2,291c0.1-1.2,1.2-2.2,2.5-2l0,0c1.3,0.1,2.2,1.2,2.1,2.5l0,0
					c-0.2,1.3-1.3,2.2-2.5,2.1l0,0c-0.2,0-0.4-0.1-0.7-0.1l0,0C131.7,293,131.1,292.1,131.2,291z M146.5,292.6
					c0.2-1.3,1.3-2.2,2.6-2l0,0c1.3,0.2,2.2,1.3,2,2.6l0,0c-0.2,1.2-1.3,2.1-2.6,1.9l0,0c-0.2,0-0.4,0-0.6-0.1l0,0
					C147,294.6,146.4,293.6,146.5,292.6z M161.8,294.7c0.2-1.3,1.3-2.1,2.6-1.9l0,0c1.3,0.2,2.1,1.3,1.9,2.6l0,0
					c-0.2,1.3-1.4,2.1-2.6,1.9l0,0c-0.2,0-0.4,0-0.5-0.1l0,0C162.2,296.9,161.6,295.8,161.8,294.7z M177,297.2
					c0.2-1.3,1.4-2.1,2.6-1.9l0,0c1.3,0.2,2.1,1.4,1.9,2.7l0,0c-0.2,1.2-1.4,2.1-2.7,1.9l0,0c-0.2,0-0.3-0.1-0.5-0.1l0,0
					C177.4,299.3,176.8,298.3,177,297.2z M192.1,299.8c0.2-1.3,1.4-2.1,2.7-1.9l0,0c1.3,0.2,2.1,1.4,1.9,2.7l0,0
					c-0.2,1.2-1.4,2.1-2.7,1.9l0,0c-0.1-0.1-0.3-0.1-0.4-0.1l0,0C192.6,302,191.9,300.9,192.1,299.8z M207.3,302.5
					c0.2-1.3,1.4-2.1,2.7-1.9l0,0c0,0,0,0,0,0l0,0c1.3,0.2,2.1,1.4,1.9,2.7l0,0c-0.2,1.2-1.4,2.1-2.7,1.9l0,0
					c-0.2,0-0.3-0.1-0.4-0.1l0,0C207.7,304.7,207.1,303.6,207.3,302.5z M222.5,305.3c0.2-1.3,1.4-2.1,2.7-1.8l0,0l0,0l0,0
					c1.2,0.2,2.1,1.4,1.9,2.7l0,0c-0.3,1.2-1.5,2.1-2.7,1.8l0,0c-0.2,0-0.3-0.1-0.5-0.1l0,0C222.9,307.4,222.3,306.4,222.5,305.3z
					 M237.7,308.1c0.2-1.3,1.4-2.1,2.7-1.9l0,0c1.3,0.2,2.1,1.4,1.9,2.7l0,0c-0.2,1.2-1.4,2.1-2.7,1.8l0,0c-0.2,0-0.3-0.1-0.4-0.1
					l0,0C238,310.2,237.4,309.2,237.7,308.1z M252.8,310.9c0.2-1.2,1.4-2.1,2.7-1.8l0,0l0,0l0,0c1.2,0.2,2.1,1.4,1.8,2.7l0,0
					c-0.2,1.2-1.4,2.1-2.6,1.8l0,0c-0.2,0-0.3-0.1-0.4-0.1l0,0C253.2,313.1,252.6,312,252.8,310.9z M267.9,313.8
					c0.3-1.3,1.5-2.1,2.7-1.8l0,0l0,0l0,0c1.3,0.3,2.1,1.5,1.8,2.7l0,0c-0.3,1.3-1.5,2.1-2.7,1.9l0,0c-0.1-0.1-0.2-0.1-0.4-0.2l0,0
					C268.4,316,267.7,314.9,267.9,313.8z M283.1,316.7c0.3-1.2,1.5-2.1,2.7-1.8l0,0c1.3,0.2,2.1,1.5,1.9,2.7l0,0
					c-0.3,1.2-1.5,2.1-2.7,1.8l0,0c-0.2,0-0.3-0.1-0.4-0.1l0,0C283.5,318.9,282.8,317.8,283.1,316.7z M298.2,319.6
					c0.2-1.2,1.5-2.1,2.7-1.8l0,0c1.2,0.2,2.1,1.4,1.8,2.7l0,0c-0.2,1.3-1.4,2.1-2.7,1.8l0,0c-0.1,0-0.3,0-0.4-0.1l0,0
					C298.6,321.8,298,320.7,298.2,319.6z M313.3,322.6c0.2-1.3,1.4-2.1,2.7-1.9l0,0c1.2,0.3,2.1,1.5,1.8,2.7l0,0
					c-0.2,1.3-1.5,2.1-2.7,1.8l0,0c-0.1-0.1-0.2-0.1-0.4-0.1l0,0C313.7,324.7,313.1,323.6,313.3,322.6z M328.4,325.5
					c0.3-1.3,1.5-2.1,2.7-1.8l0,0l0,0l0,0c1.3,0.3,2.1,1.5,1.9,2.7l0,0c-0.3,1.3-1.5,2.1-2.7,1.9l0,0c-0.1-0.1-0.3-0.1-0.4-0.1l0,0
					C328.8,327.6,328.2,326.5,328.4,325.5z M343.6,328.3c0.2-1.2,1.4-2.1,2.7-1.9l0,0c1.2,0.2,2.1,1.4,1.9,2.7l0,0
					c-0.2,1.2-1.4,2.1-2.7,1.9l0,0c-0.2,0-0.3-0.1-0.5-0.1l0,0C344,330.5,343.4,329.4,343.6,328.3z M358.3,326.1
					c-0.9-0.9-0.9-2.4,0-3.3l0,0c0.9-0.9,2.4-0.9,3.2-0.1l0,0c0.9,0.9,0.9,2.4,0,3.3l0,0c-0.7,0.7-1.6,0.9-2.5,0.5l0,0
					C358.8,326.4,358.5,326.3,358.3,326.1z M365.4,310.4c0.4-1.2,1.7-1.8,3-1.4l0,0c1.2,0.5,1.8,1.7,1.4,3l0,0
					c-0.5,1.2-1.8,1.8-3,1.4l0,0l0,0l0,0C365.6,312.9,365,311.6,365.4,310.4z M368.9,296c0.2-1.3,1.3-2.2,2.6-2l0,0
					c1.3,0.2,2.1,1.3,2,2.6l0,0c-0.2,1.3-1.3,2.2-2.6,2l0,0c-0.2,0-0.4-0.1-0.5-0.2l0,0C369.4,298.1,368.7,297,368.9,296z
					 M369.6,281C369.6,281,369.6,281,369.6,281L369.6,281c0-1.3,1-2.3,2.2-2.4l0,0c1.3,0,2.3,1,2.4,2.2l0,0c0,1.3-1,2.3-2.2,2.4l0,0
					c-0.3,0-0.6-0.1-0.9-0.2l0,0C370.3,282.8,369.6,282,369.6,281z M368.1,266.1c-0.2-1.2,0.6-2.5,1.8-2.7l0,0
					c1.2-0.2,2.4,0.6,2.7,1.9l0,0c0.2,1.2-0.6,2.5-1.8,2.7l0,0c-0.5,0-0.9,0-1.3-0.2l0,0C368.8,267.5,368.2,266.9,368.1,266.1z
					 M364.2,251.6c-0.4-1.2,0.2-2.5,1.4-2.9l0,0c1.2-0.5,2.5,0.2,3,1.4l0,0c0.4,1.2-0.2,2.5-1.4,2.9l0,0c-0.6,0.2-1.1,0.2-1.6,0l0,0
					C365,252.7,364.4,252.3,364.2,251.6z M357.6,238.4c-0.7-1-0.5-2.4,0.6-3.2l0,0c1-0.8,2.5-0.5,3.2,0.5l0,0
					c0.7,1.1,0.5,2.5-0.5,3.2l0,0c-0.7,0.4-1.5,0.6-2.2,0.3l0,0C358.3,239.1,357.9,238.8,357.6,238.4z M348.4,226.3
					c-0.8-1-0.6-2.4,0.4-3.2l0,0c1-0.8,2.5-0.6,3.3,0.4l0,0c0.8,1,0.6,2.4-0.4,3.2l0,0c-0.7,0.5-1.6,0.6-2.3,0.4l0,0
					C349,226.9,348.6,226.7,348.4,226.3z M338.8,214.3c-0.8-1-0.6-2.5,0.4-3.2l0,0c1-0.8,2.4-0.6,3.2,0.4l0,0c0.8,1,0.6,2.4-0.4,3.2
					l0,0c-0.7,0.6-1.5,0.7-2.3,0.4l0,0C339.4,214.8,339.1,214.6,338.8,214.3z M329.3,202.2c-0.8-1-0.6-2.4,0.4-3.3l0,0
					c1-0.8,2.4-0.6,3.2,0.4l0,0c0.8,1,0.6,2.4-0.3,3.3l0,0c-0.7,0.5-1.6,0.6-2.3,0.3l0,0C329.9,202.7,329.6,202.5,329.3,202.2z
					 M319.8,190.1c-0.8-1-0.6-2.4,0.4-3.2l0,0c1-0.8,2.4-0.6,3.2,0.4l0,0c0.8,1,0.6,2.4-0.4,3.2l0,0c-0.7,0.6-1.5,0.6-2.2,0.3l0,0
					C320.4,190.6,320.1,190.4,319.8,190.1z M310.4,177.8c-0.8-1-0.6-2.5,0.4-3.2l0,0c1-0.8,2.5-0.6,3.2,0.4l0,0
					c0.8,1,0.6,2.5-0.4,3.2l0,0c-0.6,0.5-1.5,0.6-2.2,0.3l0,0C311,178.4,310.7,178.2,310.4,177.8z M301.1,165.5
					c-0.7-1.1-0.5-2.5,0.5-3.3l0,0c1.1-0.7,2.5-0.5,3.2,0.5l0,0c0.8,1,0.5,2.5-0.5,3.2l0,0c-0.6,0.5-1.5,0.6-2.2,0.3l0,0
					C301.8,166.1,301.4,165.8,301.1,165.5z M292.3,152.8c-0.7-1.1-0.4-2.5,0.7-3.2l0,0c1-0.7,2.5-0.4,3.2,0.7l0,0
					c0.7,1.1,0.4,2.5-0.7,3.2l0,0c-0.7,0.4-1.5,0.5-2.1,0.2l0,0C292.9,153.5,292.5,153.2,292.3,152.8z M284.8,138.7
					c-0.4-1.2,0.2-2.5,1.4-3l0,0c1.2-0.4,2.5,0.3,2.9,1.5l0,0c0.4,1.2-0.3,2.5-1.5,2.9l0,0c-0.5,0.2-1.1,0.2-1.6,0l0,0
					C285.6,139.9,285,139.4,284.8,138.7z M283,122.6c0.1-1.3,1.3-2.2,2.6-2l0,0c1.3,0.1,2.2,1.3,2,2.5l0,0c-0.2,1.3-1.3,2.2-2.6,2
					l0,0c-0.2,0-0.4-0.1-0.6-0.2l0,0C283.5,124.6,282.9,123.6,283,122.6z M393.8,156.3c-0.8-1-0.7-2.4,0.3-3.2l0,0
					c1-0.8,2.5-0.6,3.3,0.3l0,0c0.8,1,0.7,2.4-0.3,3.2l0,0c-0.7,0.5-1.6,0.6-2.3,0.3l0,0C394.4,156.8,394,156.6,393.8,156.3z
					 M289.5,110.5c-1-0.7-1.3-2.2-0.6-3.2l0,0c0.7-1,2.2-1.3,3.2-0.5l0,0c1,0.7,1.3,2.2,0.5,3.2l0,0c-0.7,0.8-1.8,1.2-2.7,0.8l0,0
					C289.8,110.8,289.7,110.6,289.5,110.5z M384,144.3c-0.8-1-0.6-2.4,0.4-3.3l0,0c1-0.8,2.4-0.6,3.2,0.4l0,0c0.8,1,0.7,2.4-0.3,3.2
					l0,0c-0.7,0.5-1.6,0.6-2.3,0.3l0,0C384.7,144.9,384.3,144.7,384,144.3z M374.4,132.3c-0.8-1-0.6-2.4,0.3-3.2l0,0
					c1-0.8,2.5-0.6,3.3,0.3l0,0c0.8,1,0.6,2.4-0.4,3.3l0,0c-0.6,0.5-1.5,0.6-2.3,0.3l0,0C375,132.9,374.7,132.6,374.4,132.3z
					 M300.1,99.5c-0.7-1-0.3-2.5,0.7-3.2l0,0c1.1-0.7,2.5-0.3,3.2,0.7l0,0c0.7,1.1,0.4,2.5-0.7,3.2l0,0c-0.7,0.4-1.4,0.5-2.1,0.2
					l0,0C300.8,100.3,300.4,100,300.1,99.5z M364.8,120.3L364.8,120.3c-0.8-1-0.6-2.4,0.4-3.2l0,0c1-0.8,2.4-0.6,3.3,0.4l0,0
					c0.8,1,0.6,2.4-0.4,3.2l0,0c-0.7,0.5-1.5,0.6-2.3,0.3l0,0C365.4,120.8,365.1,120.6,364.8,120.3z M313.9,92.7
					c-0.3-1.2,0.4-2.5,1.7-2.8l0,0c1.2-0.3,2.5,0.4,2.8,1.7l0,0c0.3,1.2-0.5,2.5-1.7,2.7l0,0c-0.5,0.1-1,0.1-1.4-0.1l0,0
					C314.6,94.1,314.1,93.5,313.9,92.7z M355.3,108.1c-0.8-1-0.6-2.5,0.4-3.2l0,0c1-0.8,2.5-0.6,3.3,0.4l0,0c0.8,1,0.6,2.5-0.4,3.2
					l0,0c-0.7,0.5-1.6,0.6-2.3,0.3l0,0C355.9,108.7,355.6,108.5,355.3,108.1z M329.1,91c0.2-1.3,1.3-2.1,2.6-2l0,0
					c1.3,0.2,2.2,1.3,1.9,2.6l0,0c-0.2,1.3-1.3,2.1-2.6,2l0,0c-0.2,0-0.4-0.1-0.5-0.1l0,0C329.6,93.1,329,92.1,329.1,91z
					 M344.7,98.4c-1.1-0.6-1.4-2.1-0.8-3.2l0,0c0.6-1.1,2.1-1.4,3.1-0.8l0,0c1.1,0.7,1.5,2.1,0.9,3.1l0,0c-0.6,1-1.8,1.4-2.9,1l0,0
					C344.9,98.5,344.8,98.5,344.7,98.4z"/>
			</g>
		</g>
	</g>
	<g>
		<g>
			<path fill="#929497" d="M111.9,377.7c0.4-1.1,1.5-1.7,2.6-1.3l0,0c1.1,0.3,1.7,1.5,1.3,2.5l0,0c-0.3,1.1-1.5,1.7-2.6,1.3l0,0
				c0,0-0.1,0-0.2,0l0,0C112.1,379.9,111.6,378.8,111.9,377.7z M98.9,374L98.9,374L98.9,374c-1-0.6-1.3-1.8-0.7-2.8l0,0
				c0.6-1,1.8-1.3,2.8-0.7l0,0c0.9,0.6,1.3,1.8,0.7,2.8l0,0c-0.5,0.9-1.6,1.2-2.5,0.8l0,0C99.1,374.1,99,374,98.9,374z M86.6,364
				c-0.8-0.8-0.7-2.1,0.2-2.9l0,0c0.8-0.7,2.1-0.7,2.9,0.2l0,0c0.8,0.9,0.6,2.1-0.1,2.9l0,0c-0.6,0.5-1.5,0.6-2.1,0.4l0,0
				C87.1,364.4,86.8,364.2,86.6,364z M78.1,350.4c-0.4-1,0.1-2.2,1.1-2.6l0,0c1.1-0.5,2.2,0.1,2.7,1.1l0,0c0.4,1-0.1,2.2-1.2,2.7
				l0,0c-0.5,0.2-1.1,0.2-1.5,0l0,0C78.8,351.4,78.4,351,78.1,350.4z M74.6,335c-0.1-1.1,0.8-2.1,1.9-2.2l0,0
				c1.1-0.1,2.1,0.8,2.2,1.9l0-0.1c0.1,1.1-0.7,2.1-1.9,2.2l0,0c-0.3,0-0.6,0-0.9-0.1l0,0C75.2,336.5,74.6,335.8,74.6,335z
				 M75.3,319.3L75.3,319.3L75.3,319.3c0.2-1.1,1.2-1.9,2.3-1.7l0,0c1.1,0.2,1.9,1.2,1.7,2.3l0,0c-0.2,1.1-1.2,1.9-2.4,1.7l0,0
				c-0.2,0-0.3,0-0.4-0.1l0,0C75.7,321.2,75.2,320.3,75.3,319.3z M80.5,306.8c-1-0.5-1.5-1.7-1.1-2.7l0,0l0,0l0,0
				c0.4-1,1.6-1.6,2.7-1.1l0,0c1,0.5,1.5,1.6,1.1,2.7l0,0C82.7,306.7,81.5,307.2,80.5,306.8L80.5,306.8L80.5,306.8z M83.1,305.6
				L83.1,305.6L83.1,305.6L83.1,305.6z M87.7,293.4c-0.8-0.8-1-2-0.2-2.9l0,0l0,0l0,0c0.7-0.9,2-1,2.9-0.2l0,0c0.8,0.7,1,2,0.2,2.9
				l0,0c-0.6,0.7-1.5,0.9-2.3,0.6l0,0C88.1,293.7,87.9,293.5,87.7,293.4z M99.1,283.3c-0.5-1-0.2-2.3,0.9-2.8l0,0
				c1-0.5,2.3-0.2,2.7,0.9l0,0c0.5,1,0.2,2.2-0.8,2.8l0,0c-0.5,0.3-1.2,0.3-1.7,0.1l0,0C99.8,284.1,99.4,283.7,99.1,283.3z
				 M113.4,277.8c-0.2-1.1,0.5-2.2,1.6-2.4l0,0c1.1-0.2,2.2,0.6,2.4,1.7l0,0c0.2,1.1-0.5,2.2-1.6,2.4l0,0c-0.4,0.1-0.8,0-1.1-0.2
				l0,0C114,279.1,113.5,278.6,113.4,277.8z M128.6,276.5c0.1-1.1,1-2,2.1-2l0,0c1.1,0.1,2,1,2,2.1l0,0c0,1.1-1,2-2.1,2l0,0
				c-0.3,0-0.5-0.1-0.7-0.1l0,0C129.1,278.2,128.5,277.4,128.6,276.5z M143.9,277.7c0.1-1.2,1.2-2,2.3-1.8l0,0
				c1.2,0.1,2,1.2,1.8,2.2l0,0c-0.1,1.2-1.2,2-2.3,1.8l0,0c-0.2,0-0.4,0-0.6-0.1l0,0C144.3,279.5,143.7,278.6,143.9,277.7z
				 M159.1,279.7c0.2-1.1,1.2-1.9,2.3-1.7l0,0c1.1,0.2,1.9,1.2,1.7,2.3l0,0c-0.2,1.1-1.2,1.9-2.3,1.7l0,0c-0.2,0-0.3-0.1-0.5-0.1
				l0,0C159.5,281.5,159,280.7,159.1,279.7z M174.2,282c0.2-1.1,1.3-1.9,2.4-1.7l0,0c1.1,0.2,1.9,1.2,1.7,2.4l0,0
				c-0.2,1.1-1.2,1.8-2.4,1.7l0,0c-0.2,0-0.3-0.1-0.4-0.1l0,0C174.6,284,174,283,174.2,282z M189.3,284.6c0.2-1.1,1.3-1.9,2.4-1.6
				l0,0c0,0,0,0-0.1,0l0,0c1.1,0.2,1.9,1.2,1.7,2.4l0,0c-0.2,1.1-1.3,1.8-2.4,1.6l0,0c-0.1,0-0.3,0-0.4-0.1l0,0
				C189.7,286.5,189.2,285.6,189.3,284.6z M204.5,287.3c0.2-1.1,1.2-1.8,2.4-1.7l0,0c1.1,0.2,1.9,1.3,1.6,2.4l0,0
				c-0.2,1.1-1.3,1.9-2.4,1.7l0,0c-0.1-0.1-0.3-0.1-0.4-0.1l0,0C204.8,289.2,204.3,288.2,204.5,287.3z M219.5,290
				c0.2-1.1,1.3-1.8,2.4-1.6l0,0c1.1,0.2,1.8,1.2,1.6,2.3l0,0c-0.2,1.1-1.2,1.9-2.4,1.7l0,0c-0.2,0-0.3,0-0.4-0.1l0,0
				C219.9,291.9,219.3,291,219.5,290z M234.6,292.8c0.2-1.1,1.3-1.9,2.4-1.7l0,0c1.1,0.2,1.9,1.3,1.7,2.4l0,0
				c-0.2,1.1-1.3,1.9-2.4,1.6l0,0c-0.1,0-0.2,0-0.3-0.1l0,0C235,294.7,234.4,293.8,234.6,292.8z M249.7,295.6
				c0.2-1.1,1.3-1.8,2.3-1.6l0,0c1.1,0.2,1.9,1.3,1.7,2.4l0,0c-0.2,1.1-1.3,1.9-2.4,1.6l0,0c-0.1,0-0.3,0-0.4-0.1l0,0
				C250,297.5,249.5,296.6,249.7,295.6z M264.7,298.4c0.2-1.1,1.3-1.8,2.4-1.6l0,0c0,0,0,0,0,0l0,0c1.1,0.2,1.8,1.3,1.6,2.4l0,0
				c-0.2,1.1-1.3,1.9-2.4,1.6l0,0c-0.1,0-0.2-0.1-0.3-0.1l0,0C265.1,300.4,264.5,299.4,264.7,298.4z M279.8,301.3
				c0.2-1.1,1.3-1.9,2.4-1.7l0,0c0,0,0,0,0,0l0,0c1.1,0.2,1.8,1.3,1.6,2.4l0,0c-0.2,1.1-1.3,1.9-2.4,1.6l0,0c-0.1,0-0.2-0.1-0.3-0.1
				l0,0C280.1,303.2,279.6,302.3,279.8,301.3z M294.8,304.2c0.2-1.1,1.3-1.9,2.4-1.6l0,0c1.1,0.2,1.8,1.3,1.6,2.4l0,0
				c-0.2,1.1-1.3,1.9-2.4,1.6l0,0c-0.1,0-0.3,0-0.4-0.1l0,0C295.2,306.2,294.6,305.2,294.8,304.2z M309.9,307.1
				c0.2-1.1,1.3-1.8,2.4-1.6l0,0l0,0l0,0c1.1,0.2,1.8,1.3,1.6,2.4l0,0c-0.2,1.1-1.3,1.8-2.4,1.6l0,0c-0.1,0-0.3,0-0.4-0.1l0,0
				C310.2,309,309.7,308.1,309.9,307.1z M324.9,310c0.2-1.1,1.3-1.9,2.4-1.6l0,0l0,0l0,0c1.1,0.2,1.9,1.3,1.6,2.4l0,0
				c-0.2,1.1-1.3,1.8-2.4,1.6l0,0c-0.1-0.1-0.2-0.1-0.4-0.1l0,0C325.3,311.9,324.8,311,324.9,310z M340,312.9
				c0.2-1.1,1.3-1.9,2.4-1.6l0,0c1.1,0.2,1.8,1.3,1.6,2.4l0,0c-0.2,1.1-1.3,1.8-2.4,1.6l0,0c-0.1-0.1-0.3,0-0.4-0.1l0,0
				C340.3,314.8,339.8,313.9,340,312.9z M352.6,309.7c-1-0.5-1.5-1.7-1.1-2.7l0,0c0.4-1,1.7-1.6,2.7-1.1l0,0c1,0.4,1.5,1.6,1.1,2.7
				l0,0C354.8,309.6,353.7,310.1,352.6,309.7L352.6,309.7L352.6,309.7z M354.9,292.8L354.9,292.8L354.9,292.8
				c0.1-1.1,1.1-1.9,2.3-1.8l0,0c1.1,0.1,1.9,1.1,1.8,2.3l0,0c-0.1,1.1-1.1,1.9-2.3,1.8l0,0c-0.2,0-0.4-0.1-0.5-0.2l0,0
				C355.3,294.5,354.8,293.7,354.9,292.8z M355.1,277.9c-0.1-1.1,0.8-2.1,1.9-2.2l0,0c1.1-0.1,2.1,0.8,2.2,1.9l0,0
				c0.1,1.1-0.8,2.1-1.9,2.2l0,0c-0.3,0-0.6,0-0.9-0.1l0,0C355.7,279.3,355.2,278.7,355.1,277.9z M352.8,263.1
				c-0.3-1.1,0.4-2.2,1.5-2.5l0,0c1.1-0.3,2.2,0.4,2.5,1.5l0,0c0.3,1.1-0.4,2.2-1.5,2.4l0,0c-0.4,0.1-0.9,0.1-1.2,0l0,0
				C353.4,264.3,353,263.8,352.8,263.1z M347.6,249.3L347.6,249.3L347.6,249.3c-0.5-1-0.2-2.3,0.8-2.8l0,0c1-0.5,2.2-0.2,2.7,0.9
				l0,0c0.6,1,0.2,2.2-0.8,2.8l0,0c-0.5,0.3-1.2,0.3-1.7,0.1l0,0C348.2,250.1,347.8,249.8,347.6,249.3z M338.8,237.2
				c-0.7-0.9-0.5-2.2,0.4-2.9l0,0c0.9-0.7,2.2-0.5,2.9,0.4l0,0c0.7,0.9,0.5,2.2-0.4,2.9l0,0c-0.6,0.5-1.4,0.6-2,0.3l0,0
				C339.3,237.7,339,237.5,338.8,237.2z M329.4,225.2L329.4,225.2L329.4,225.2c-0.7-0.9-0.6-2.2,0.3-2.9l0,0
				c0.9-0.7,2.2-0.5,2.9,0.4l0,0c0.7,0.9,0.5,2.1-0.3,2.8l0,0c-0.6,0.5-1.4,0.6-2,0.3l0,0C329.9,225.7,329.6,225.5,329.4,225.2z
				 M319.8,213.2L319.8,213.2L319.8,213.2c-0.7-0.9-0.5-2.1,0.4-2.9l0,0c0.9-0.7,2.1-0.5,2.8,0.3l0,0c0.7,0.9,0.6,2.2-0.3,2.9l0,0
				c-0.6,0.4-1.4,0.6-2,0.3l0,0C320.3,213.7,320,213.5,319.8,213.2z M310.4,201.2c-0.7-0.9-0.5-2.2,0.4-2.9l0,0
				c0.9-0.7,2.2-0.6,2.9,0.4l0,0c0.7,0.9,0.5,2.1-0.3,2.8l0,0c-0.6,0.5-1.4,0.6-2,0.3l0,0C310.9,201.7,310.6,201.4,310.4,201.2z
				 M301,189.1c-0.7-0.9-0.5-2.2,0.4-2.9l0,0c0.9-0.7,2.2-0.5,2.9,0.4l0,0c0.7,0.9,0.5,2.2-0.4,2.9l0,0c-0.6,0.5-1.4,0.5-2,0.3l0,0
				C301.5,189.5,301.2,189.4,301,189.1z M291.7,176.7c-0.7-0.9-0.5-2.2,0.5-2.8l0,0c0.9-0.7,2.2-0.5,2.8,0.5l0,0
				c0.7,0.9,0.5,2.2-0.4,2.9l0,0c-0.6,0.4-1.4,0.5-2,0.3l0,0C292.3,177.3,292,177.1,291.7,176.7z M282.8,164.3
				c-0.7-1-0.4-2.2,0.5-2.9l0,0c0.9-0.6,2.2-0.4,2.8,0.5l0,0c0.7,1,0.4,2.2-0.5,2.9l0,0c-0.6,0.4-1.3,0.4-1.9,0.2l0,0
				C283.4,164.8,283,164.6,282.8,164.3z M274.6,151.1C274.6,151.1,274.6,151.1,274.6,151.1L274.6,151.1c-0.5-1-0.1-2.2,0.9-2.7l0,0
				c1-0.5,2.3-0.2,2.8,0.9l0,0c0.5,1,0.1,2.2-0.9,2.8l0,0c-0.5,0.2-1.1,0.3-1.7,0.1l0,0C275.2,151.9,274.8,151.5,274.6,151.1z
				 M269.4,136.2c-0.2-1.1,0.5-2.2,1.6-2.4l0,0c1.1-0.2,2.2,0.5,2.4,1.6l0,0c0.2,1.1-0.5,2.2-1.6,2.4l0,0c-0.4,0.1-0.8,0-1.1-0.1
				l0,0C270,137.4,269.5,136.9,269.4,136.2z M268.8,120.3c0.1-1.2,1.2-1.9,2.3-1.8l0,0c1.1,0.2,1.9,1.2,1.7,2.3l0,0
				c-0.1,1.2-1.1,1.9-2.3,1.8l0,0c-0.2,0-0.3-0.1-0.4-0.1l0,0C269.3,122.1,268.7,121.2,268.8,120.3z M274.5,107.9
				c-1-0.5-1.4-1.8-0.9-2.8l0,0c0.5-1,1.8-1.4,2.8-0.9l0,0c1,0.6,1.4,1.8,0.9,2.8l0,0c-0.5,1-1.6,1.3-2.6,1l0,0
				C274.6,107.9,274.5,107.9,274.5,107.9z M283,95.2c-0.8-0.8-0.8-2.1,0-2.9l0,0c0.8-0.8,2.1-0.8,2.9,0l0,0c0.8,0.8,0.8,2.1,0,2.9
				l0,0c-0.6,0.6-1.5,0.8-2.2,0.5l0,0C283.5,95.6,283.3,95.4,283,95.2z M393.2,132.2c-0.7-0.9-0.6-2.2,0.3-2.9l0,0
				c0.9-0.7,2.2-0.6,2.9,0.3l0,0c0.8,0.9,0.6,2.2-0.3,2.9l0,0c-0.6,0.5-1.4,0.6-2.1,0.3l0,0C393.7,132.7,393.4,132.5,393.2,132.2z
				 M294.9,85.7c-0.6-1-0.3-2.2,0.7-2.8l0,0c1-0.5,2.2-0.2,2.8,0.8l0,0c0.6,1,0.3,2.3-0.7,2.8l0,0c-0.6,0.3-1.2,0.3-1.8,0.1l0,0
				C295.5,86.3,295.1,86.1,294.9,85.7z M383.6,120.2c-0.7-0.9-0.5-2.1,0.3-2.8l0,0c0.9-0.7,2.2-0.6,2.9,0.3l0,0
				c0.7,0.9,0.6,2.2-0.3,2.9l0,0c-0.6,0.4-1.4,0.6-2,0.3l0,0C384.1,120.8,383.9,120.5,383.6,120.2z M374.2,108.2
				c-0.7-0.9-0.6-2.2,0.3-2.8l0,0c0.9-0.7,2.2-0.6,2.9,0.3l0,0c0.7,0.9,0.6,2.2-0.4,2.9l0,0c-0.6,0.5-1.3,0.6-2,0.3l0,0
				C374.7,108.7,374.4,108.5,374.2,108.2z M308.7,79.2c-0.3-1.1,0.3-2.2,1.4-2.6l0,0c1.1-0.3,2.2,0.3,2.5,1.4l0,0
				c0.3,1-0.3,2.2-1.4,2.5l0,0c-0.4,0.1-0.9,0.1-1.3-0.1l0,0C309.4,80.2,308.9,79.8,308.7,79.2z M364.7,96.2L364.7,96.2
				c-0.7-0.9-0.6-2.2,0.3-2.9l0,0c0.8-0.7,2.2-0.6,2.9,0.3l0,0c0.7,0.8,0.6,2.2-0.2,2.9l0,0c-0.6,0.5-1.4,0.6-2.1,0.3l0,0
				C365.3,96.7,365,96.5,364.7,96.2z M323.8,76.4c0-1.1,0.9-2.1,2.1-2l0,0c1.1,0,2,0.9,2.1,2l0,0c0,1.1-0.9,2.1-2.1,2l0,0
				c-0.3,0-0.5,0-0.8-0.1l0,0C324.3,78,323.8,77.3,323.8,76.4z M353.7,86.6c-0.9-0.6-1.2-1.8-0.6-2.8l0,0c0.6-1,1.9-1.2,2.8-0.6l0,0
				c0.9,0.6,1.2,1.9,0.6,2.8l0,0c-0.5,0.8-1.6,1.2-2.5,0.8l0,0C354,86.8,353.8,86.7,353.7,86.6z M338.9,78c0.4-1.1,1.5-1.7,2.6-1.4
				l0,0c1.1,0.4,1.7,1.5,1.4,2.6l0,0c-0.3,1.1-1.4,1.7-2.5,1.4l0,0c0,0-0.1,0-0.1-0.1l0,0C339.2,80.1,338.6,79.1,338.9,78z"/>
		</g>
	</g>
	<g>
		<g>
			<path fill="#929497" d="M340.6,300.1c-0.4-0.2-0.8-0.5-1-1c-0.2-0.4-0.2-0.9,0-1.3c0.2-0.4,0.5-0.8,0.9-1c0.9-0.4,2,0.1,2.4,0.9
				c0.2,0.4,0.2,0.9,0,1.4c-0.2,0.4-0.5,0.8-0.9,1C341.5,300.2,341.1,300.3,340.6,300.1z"/>
		</g>
		<g>
			<path fill="#929497" d="M341.1,283.1c0-1,0.8-1.8,1.8-1.8l0,0c1-0.1,1.8,0.8,1.8,1.7l0,0c0,1-0.8,1.8-1.8,1.8l0,0
				c-0.2,0-0.5,0-0.7-0.1l0,0C341.6,284.5,341.1,283.9,341.1,283.1z M339.4,268.2c-0.2-1,0.4-1.9,1.4-2.1l0,0c1-0.2,1.9,0.4,2.1,1.4
				l0,0c0.2,1-0.4,1.9-1.3,2.2l0,0c-0.4,0.1-0.7,0-1.1-0.1l0,0C339.9,269.3,339.5,268.9,339.4,268.2z M334.2,254.6
				c-0.6-0.8-0.4-1.9,0.4-2.5l0,0c0.8-0.6,1.9-0.4,2.5,0.5l0,0c0.6,0.8,0.4,1.9-0.5,2.5l0,0c-0.5,0.4-1.2,0.4-1.7,0.2l0,0
				C334.6,255.1,334.4,254.9,334.2,254.6z M324.8,242.5c-0.6-0.8-0.5-1.9,0.3-2.5l0,0c0.8-0.6,1.9-0.5,2.5,0.3l0,0
				c0.6,0.7,0.5,1.9-0.3,2.5l0,0c-0.5,0.5-1.2,0.5-1.8,0.3l0,0C325.3,242.9,325,242.7,324.8,242.5z M315.3,230.4
				c-0.6-0.8-0.5-1.9,0.3-2.5l0,0c0.7-0.6,1.9-0.5,2.5,0.3l0,0c0.6,0.7,0.5,1.9-0.3,2.5l0,0c-0.5,0.5-1.2,0.5-1.8,0.3l0,0
				C315.7,230.9,315.5,230.6,315.3,230.4z M305.7,218.3L305.7,218.3L305.7,218.3c-0.6-0.8-0.5-1.9,0.3-2.5l0,0
				c0.8-0.6,1.9-0.5,2.5,0.3l0,0c0.6,0.7,0.5,1.9-0.3,2.5l0,0c-0.5,0.4-1.2,0.5-1.7,0.2l0,0C306.2,218.8,305.9,218.6,305.7,218.3z
				 M296.2,206.2c-0.6-0.8-0.5-1.9,0.3-2.5l0,0c0.8-0.6,1.9-0.5,2.5,0.3l0,0c0.6,0.8,0.5,1.9-0.3,2.5l0,0c-0.5,0.4-1.2,0.5-1.7,0.2
				l0,0C296.7,206.6,296.5,206.4,296.2,206.2z M286.8,194c-0.6-0.8-0.4-1.9,0.3-2.6l0,0c0.8-0.6,1.9-0.4,2.5,0.4l0,0
				c0.6,0.8,0.4,1.9-0.3,2.5l0,0c-0.5,0.4-1.2,0.5-1.7,0.2l0,0C287.3,194.4,287.1,194.2,286.8,194z M277.6,181.6
				c-0.6-0.8-0.4-1.9,0.4-2.5l0,0c0.8-0.6,1.9-0.4,2.5,0.4l0,0c0.6,0.8,0.4,1.9-0.4,2.5l0,0c-0.5,0.4-1.2,0.4-1.7,0.2l0,0
				C278.1,182.1,277.8,181.9,277.6,181.6z M268.7,168.9c-0.5-0.9-0.3-1.9,0.5-2.5l0,0c0.8-0.6,1.9-0.4,2.5,0.5l0,0
				c0.6,0.8,0.3,1.9-0.5,2.5l0,0c-0.5,0.3-1.1,0.4-1.7,0.2l0,0C269.2,169.5,268.9,169.2,268.7,168.9z M260.8,155.4
				c-0.4-0.9,0-1.9,0.9-2.3l0,0c0.9-0.4,1.9-0.1,2.4,0.9l0,0c0.4,0.9,0.1,1.9-0.8,2.4l0,0c-0.5,0.2-1,0.2-1.4,0l0,0
				C261.4,156.2,261,155.9,260.8,155.4z M255.7,140.6c-0.2-1,0.4-1.9,1.3-2.2l0,0c0.9-0.2,1.9,0.4,2.1,1.4l0,0
				c0.2,1-0.4,1.9-1.4,2.1l0,0c-0.4,0.1-0.7,0-1-0.1l0,0C256.3,141.6,255.8,141.1,255.7,140.6z M254.2,124.9c0-1,0.9-1.8,1.8-1.7
				l0,0c1,0,1.8,0.9,1.7,1.8l0,0c0,1-0.8,1.8-1.8,1.8l0,0c-0.2,0-0.4-0.1-0.6-0.1l0,0C254.6,126.3,254.2,125.6,254.2,124.9z
				 M256.7,109.2c0.3-0.9,1.3-1.5,2.2-1.2l0,0c0.9,0.3,1.5,1.3,1.2,2.2l0,0c-0.3,0.9-1.3,1.5-2.2,1.2l0,0c0,0-0.1,0-0.1-0.1l0,0
				C256.9,111.1,256.4,110.1,256.7,109.2z M263.7,97.3c-0.9-0.5-1.1-1.6-0.6-2.4l0,0c0.5-0.8,1.6-1.1,2.5-0.6l0,0
				c0.8,0.5,1.1,1.6,0.6,2.4l0,0c-0.5,0.8-1.4,1-2.2,0.7l0,0C263.9,97.4,263.8,97.3,263.7,97.3z M272.8,85c-0.7-0.7-0.7-1.9,0-2.6
				l0,0c0.7-0.7,1.8-0.7,2.5,0l0,0c0.7,0.7,0.7,1.9,0,2.5l0,0c-0.5,0.6-1.3,0.6-1.9,0.4l0,0C273.2,85.2,273,85.1,272.8,85z
				 M284.6,75c-0.6-0.8-0.3-1.9,0.5-2.4l0,0l0,0l0,0c0.8-0.6,1.9-0.3,2.5,0.5l0,0c0.5,0.8,0.3,1.9-0.5,2.4l0,0
				c-0.5,0.3-1.1,0.4-1.7,0.2l0,0C285.1,75.6,284.8,75.4,284.6,75z M399.5,116.4c-0.6-0.8-0.5-1.9,0.3-2.5l0,0
				c0.8-0.6,1.9-0.5,2.5,0.3l0,0c0.6,0.8,0.5,1.9-0.3,2.5l0,0c-0.5,0.4-1.2,0.5-1.8,0.2l0,0C399.9,116.8,399.7,116.7,399.5,116.4z
				 M389.9,104.4c-0.6-0.8-0.5-1.9,0.3-2.5l0,0c0.8-0.6,1.9-0.5,2.5,0.3l0,0c0.6,0.8,0.5,1.9-0.3,2.5l0,0c-0.5,0.4-1.2,0.5-1.7,0.2
				l0,0C390.4,104.8,390.1,104.6,389.9,104.4z M298.1,67.7c-0.4-0.9,0.1-2,1-2.4l0,0c0.9-0.4,2,0.1,2.3,1l0,0c0.4,0.9-0.1,1.9-1,2.3
				l0,0c-0.4,0.2-0.9,0.2-1.3,0l0,0C298.6,68.5,298.3,68.2,298.1,67.7z M380.4,92.3c-0.6-0.8-0.4-1.9,0.3-2.5l0,0
				c0.8-0.6,1.9-0.5,2.5,0.3l0,0l0,0l0,0c0.6,0.8,0.5,1.9-0.3,2.5l0,0c-0.5,0.4-1.2,0.5-1.7,0.2l0,0
				C380.9,92.7,380.6,92.5,380.4,92.3z M312.8,63.1c-0.2-1,0.5-1.9,1.5-2.1l0,0c1-0.2,1.9,0.5,2.1,1.5l0,0c0.2,0.9-0.5,1.9-1.5,2.1
				l0,0c-0.3,0-0.7,0-1-0.1l0,0C313.3,64.3,312.9,63.8,312.8,63.1z M370.5,80.9c-0.7-0.7-0.8-1.8-0.1-2.5l0,0
				c0.7-0.7,1.8-0.8,2.5-0.1l0,0c0.7,0.7,0.8,1.8,0.1,2.5l0,0c-0.5,0.6-1.3,0.7-2,0.4l0,0C370.8,81.2,370.6,81.1,370.5,80.9z
				 M328.1,61.9c0.1-1,0.9-1.7,1.9-1.7l0,0l0,0l0,0c1,0,1.7,0.9,1.7,1.9l0,0c-0.1,1-1,1.7-1.9,1.7l0,0c-0.2,0-0.4,0-0.6-0.1l0,0
				C328.5,63.4,328.1,62.7,328.1,61.9z M358.3,72.2c-0.8-0.5-1.2-1.6-0.7-2.5l0,0c0.5-0.9,1.6-1.1,2.4-0.7l0,0
				c0.8,0.5,1.2,1.6,0.7,2.4l0,0c-0.4,0.8-1.4,1.2-2.2,0.8l0,0C358.5,72.3,358.4,72.3,358.3,72.2z M343.3,64.2
				c0.3-1,1.2-1.5,2.2-1.2l0,0c0.9,0.3,1.5,1.2,1.2,2.2l0,0c-0.3,0.9-1.2,1.5-2.2,1.2l0,0c0,0-0.1,0-0.1-0.1l0,0
				C343.5,66,343,65.1,343.3,64.2z"/>
		</g>
		<g>
			<path fill="#929497" d="M74.3,371.7c-0.6-0.7-0.5-1.9,0.2-2.5l0,0c0.7-0.6,1.9-0.6,2.5,0.2l0,0c0.6,0.7,0.5,1.9-0.3,2.5l0,0
				c-0.5,0.4-1.2,0.5-1.8,0.3l0,0C74.7,372.1,74.5,371.9,74.3,371.7z M65.9,358.4c-0.4-0.9,0-2,0.9-2.4l0,0c0.9-0.4,1.9,0,2.3,0.9
				l0,0c0.4,0.9,0,1.9-0.9,2.4l0,0c-0.5,0.2-1,0.2-1.4,0.1l0,0C66.5,359.2,66.2,358.8,65.9,358.4z M61.3,343.4
				c-0.2-0.9,0.4-1.9,1.4-2.1l0,0c0.9-0.2,1.9,0.5,2.1,1.4l0,0c0.2,1-0.5,1.9-1.4,2.1l0,0c-0.4,0.1-0.7,0.1-1-0.1l0,0
				C61.8,344.6,61.4,344.1,61.3,343.4z M60.2,327.9c0.1-1,0.9-1.8,1.8-1.7l0,0c1,0,1.8,0.9,1.8,1.8l0,0c0,1-0.9,1.8-1.8,1.7l0,0
				c-0.2,0-0.4-0.1-0.6-0.1l0,0C60.6,329.4,60.1,328.7,60.2,327.9z M62.1,312.4c0.2-1,1.1-1.6,2.1-1.4l0,0c1,0.2,1.6,1.1,1.4,2.1
				l0,0c-0.2,1-1.2,1.6-2.2,1.4l0,0c-0.1,0-0.2-0.1-0.3-0.1l0,0C62.3,314.1,61.9,313.3,62.1,312.4z M67.6,299.9
				c-0.9-0.4-1.4-1.5-0.9-2.3l0,0c0.4-0.9,1.4-1.3,2.4-0.9l0,0c0.9,0.4,1.3,1.4,0.9,2.3l0,0C69.5,299.8,68.5,300.3,67.6,299.9
				L67.6,299.9C67.6,299.9,67.6,299.9,67.6,299.9z M74.8,286.5c-0.8-0.6-1-1.8-0.3-2.5l0,0c0.6-0.8,1.7-0.9,2.5-0.3l0,0
				c0.8,0.6,0.9,1.7,0.3,2.5l0,0c-0.5,0.6-1.3,0.9-2.1,0.6l0,0C75.1,286.7,74.9,286.6,74.8,286.5z M85.3,275.5
				c-0.6-0.8-0.4-1.9,0.4-2.5l0,0c0.8-0.6,1.9-0.4,2.5,0.4l0,0c0.6,0.8,0.4,1.9-0.4,2.5l0,0c-0.5,0.4-1.2,0.5-1.8,0.3l0,0
				C85.7,275.9,85.5,275.7,85.3,275.5z M98.4,267.6c-0.4-0.9,0.1-2,1-2.4l0,0c0.9-0.4,2,0.1,2.4,1l0,0c0.4,0.9-0.1,1.9-1,2.3l0,0
				c-0.5,0.2-0.9,0.2-1.3,0l0,0C98.9,268.5,98.6,268.1,98.4,267.6z M113,263.3c-0.1-1,0.5-1.9,1.5-2l0,0l0,0l0,0
				c1-0.2,1.9,0.5,2,1.5l0,0c0.1,0.9-0.5,1.9-1.5,2l0,0c-0.3,0-0.6,0-0.9-0.1l0,0C113.5,264.4,113.1,263.9,113,263.3z M128.2,262
				c0-1,0.9-1.8,1.8-1.7l0,0c1,0,1.8,0.8,1.8,1.8l0,0c-0.1,1-0.9,1.8-1.8,1.8l0,0c-0.2,0-0.4-0.1-0.6-0.1l0,0
				C128.6,263.5,128.2,262.8,128.2,262z M143.4,263.1c0.1-1,1-1.7,2-1.6l0,0c1,0.1,1.7,1,1.6,1.9l0,0c-0.1,1-1,1.7-2,1.6l0,0
				c-0.2,0-0.3-0.1-0.5-0.1l0,0C143.9,264.6,143.4,263.9,143.4,263.1z M158.6,265c0.2-1,1-1.7,2-1.5l0,0c1,0.1,1.7,1,1.5,2l0,0
				c-0.1,1-1,1.7-2,1.5l0,0c-0.1,0-0.3,0-0.4-0.1l0,0C159,266.6,158.5,265.8,158.6,265z M173.8,267.3c0.2-1,1-1.6,2-1.5l0,0
				c1,0.2,1.7,1,1.5,2l0,0c-0.2,1-1.1,1.7-2.1,1.5l0,0c-0.1,0-0.3,0-0.4-0.1l0,0C174.1,269,173.6,268.2,173.8,267.3z M188.9,269.8
				c0.2-1,1.1-1.6,2.1-1.4l0,0c1,0.2,1.7,1.1,1.4,2.1l0,0c-0.2,1-1.1,1.6-2.1,1.4l0,0c-0.1,0-0.3,0-0.4-0.1l0,0
				C189.2,271.5,188.7,270.7,188.9,269.8z M204,272.5c0.2-1,1.1-1.7,2.1-1.5l0,0c1,0.2,1.6,1.1,1.4,2.1l0,0c-0.2,1-1.1,1.6-2.1,1.4
				l0,0c-0.1-0.1-0.3,0-0.4-0.1l0,0C204.2,274.1,203.8,273.3,204,272.5z M219,275.1c0.2-1,1.1-1.6,2.1-1.4l0,0
				c1,0.2,1.6,1.1,1.4,2.1l0,0c-0.2,1-1.1,1.6-2.1,1.4l0,0c-0.1,0-0.2,0-0.3-0.1l0,0C219.3,276.9,218.9,276,219,275.1z M234.1,277.9
				c0.2-1,1.1-1.6,2.1-1.4l0,0c1,0.2,1.6,1.1,1.4,2.1l0,0c-0.2,1-1.1,1.6-2.1,1.4l0,0c-0.1-0.1-0.3,0-0.4-0.1l0,0
				C234.3,279.6,233.9,278.8,234.1,277.9z M249.1,280.7c0.2-1,1.1-1.6,2.1-1.4l0,0c1,0.2,1.6,1.1,1.4,2.1l0,0
				c-0.2,1-1.1,1.6-2.1,1.4l0,0c-0.1,0-0.2-0.1-0.3-0.1l0,0C249.4,282.4,248.9,281.6,249.1,280.7z M264.1,283.6
				c0.2-1,1.1-1.6,2.1-1.4l0,0c1,0.2,1.7,1.1,1.5,2.1l0,0c-0.2,1-1.1,1.6-2.1,1.4l0,0c-0.1,0-0.2,0-0.3-0.1l0,0
				C264.4,285.3,264,284.4,264.1,283.6z M279.2,286.4c0.2-1,1.1-1.6,2.1-1.4l0,0c1,0.2,1.6,1.1,1.4,2.1l0,0c-0.2,1-1.1,1.6-2.1,1.4
				l0,0c-0.1,0-0.3,0-0.4-0.1l0,0C279.5,288.1,279,287.3,279.2,286.4z M294.1,289.3c0.2-1,1.1-1.6,2.1-1.4l0,0l0,0l0,0
				c1,0.2,1.6,1.1,1.4,2.1l0,0c-0.2,1-1.1,1.6-2.1,1.4l0,0c-0.1,0-0.2,0-0.3-0.1l0,0C294.5,291,294,290.2,294.1,289.3z M309.2,292.2
				c0.2-1,1.1-1.6,2.1-1.4l0,0l0,0l0,0c1,0.2,1.6,1.1,1.4,2.1l0,0c-0.2,1-1.1,1.6-2.1,1.4l0,0c-0.1,0-0.2,0-0.3-0.1l0,0
				C309.5,293.9,309,293.1,309.2,292.2z M324.2,295.1c0.2-1,1.1-1.6,2.1-1.4l0,0c1,0.2,1.6,1.1,1.4,2.1l0,0c-0.2,1-1.1,1.6-2.1,1.4
				l0,0c-0.1-0.1-0.2-0.1-0.3-0.1l0,0C324.6,296.8,324.1,296,324.2,295.1z"/>
		</g>
	</g>
	<g>
		<g>
			<path fill="#929497" d="M327.7,282.6c-0.4-0.2-0.7-0.4-0.8-0.8c-0.2-0.4-0.2-0.8,0-1.2c0.1-0.3,0.4-0.7,0.8-0.8
				c0.7-0.3,1.7,0.1,2,0.8c0.2,0.4,0.2,0.8,0,1.2c-0.1,0.4-0.4,0.7-0.8,0.8C328.5,282.7,328.1,282.7,327.7,282.6z"/>
		</g>
		<g>
			<path fill="#929497" d="M324.1,266.6c-0.2-0.8,0.2-1.6,0.9-1.9l0,0c0.8-0.3,1.7,0.1,2,0.9l0,0c0.3,0.8-0.2,1.7-0.9,1.9l0,0
				c-0.4,0.1-0.8,0.1-1.1,0l0,0C324.7,267.3,324.3,267,324.1,266.6z M316,254.2c-0.5-0.6-0.4-1.6,0.2-2.2l0,0
				c0.7-0.5,1.6-0.4,2.1,0.3l0,0c0.6,0.7,0.4,1.6-0.2,2.2l0,0c-0.5,0.3-1,0.4-1.5,0.2l0,0C316.3,254.7,316.1,254.5,316,254.2z
				 M306.4,242.1c-0.5-0.6-0.4-1.6,0.3-2.1l0,0c0.6-0.5,1.6-0.4,2.1,0.3l0,0c0.5,0.6,0.4,1.6-0.3,2.1l0,0c-0.4,0.3-1,0.4-1.5,0.2
				l0,0C306.8,242.6,306.6,242.4,306.4,242.1z M296.9,230.1c-0.6-0.7-0.4-1.6,0.2-2.2l0,0c0.6-0.5,1.6-0.4,2.2,0.2l0,0
				c0.5,0.6,0.4,1.6-0.2,2.2l0,0c-0.5,0.4-1,0.4-1.5,0.2l0,0C297.3,230.5,297.1,230.3,296.9,230.1z M287.4,218
				c-0.6-0.7-0.4-1.6,0.2-2.2l0,0c0.7-0.5,1.6-0.4,2.1,0.3l0,0c0.5,0.6,0.4,1.6-0.2,2.2l0,0c-0.5,0.3-1,0.4-1.5,0.2l0,0
				C287.8,218.4,287.5,218.2,287.4,218z M278,205.8C278,205.8,278,205.8,278,205.8L278,205.8c-0.5-0.7-0.4-1.6,0.2-2.2l0,0
				c0.7-0.5,1.6-0.4,2.2,0.3l0,0c0.5,0.6,0.4,1.6-0.3,2.1l0,0c-0.5,0.3-1,0.4-1.5,0.2l0,0C278.4,206.2,278.1,206.1,278,205.8z
				 M268.7,193.5L268.7,193.5L268.7,193.5c-0.5-0.7-0.3-1.6,0.3-2.1l0,0c0.7-0.5,1.6-0.4,2.1,0.3l0,0c0.5,0.7,0.3,1.6-0.3,2.1l0,0
				c-0.5,0.3-1,0.4-1.5,0.2l0,0C269.1,193.9,268.9,193.8,268.7,193.5z M259.7,181c-0.4-0.7-0.3-1.6,0.4-2.1l0,0
				c0.7-0.5,1.7-0.3,2.2,0.4l0,0c0.5,0.7,0.3,1.6-0.4,2.1l0,0c-0.4,0.3-1,0.3-1.4,0.1l0,0C260.1,181.4,259.9,181.2,259.7,181z
				 M251.3,167.9c-0.4-0.7-0.2-1.7,0.5-2.1l0,0c0.7-0.4,1.7-0.2,2.1,0.6l0,0c0.4,0.7,0.2,1.7-0.5,2.1l0,0c-0.4,0.2-0.9,0.2-1.4,0.1
				l0,0C251.8,168.5,251.5,168.3,251.3,167.9z M244.8,153.8c-0.2-0.8,0.2-1.7,0.9-1.9l0,0c0.8-0.3,1.7,0.1,2,0.9l0,0
				c0.3,0.8-0.1,1.6-0.9,1.9l0,0c-0.4,0.1-0.7,0.1-1.1,0l0,0C245.3,154.5,244.9,154.2,244.8,153.8z M241,138.6
				c-0.2-0.8,0.4-1.6,1.3-1.7l0,0c0.8-0.1,1.6,0.5,1.7,1.3l0,0c0.1,0.9-0.5,1.6-1.3,1.7l0,0c-0.3,0.1-0.6,0-0.8-0.1l0,0
				C241.4,139.6,241,139.2,241,138.6z M240.1,123L240.1,123L240.1,123c0.1-0.8,0.8-1.5,1.6-1.4l0,0c0.9,0,1.5,0.8,1.5,1.6l0,0
				c0,0.8-0.7,1.5-1.6,1.5l0,0c-0.2,0-0.3-0.1-0.5-0.1l0,0C240.5,124.3,240.1,123.7,240.1,123z M242.5,107.5
				c0.2-0.8,1.1-1.3,1.9-1.1l0,0c0.8,0.2,1.3,1.1,1.1,1.9l0,0c-0.2,0.8-1.1,1.3-1.9,1.1l0,0c-0.1,0-0.2,0-0.2,0l0,0
				C242.7,109.1,242.3,108.3,242.5,107.5z M248.7,95c-0.8-0.4-1.1-1.3-0.7-2.1l0,0c0.4-0.7,1.3-1,2.1-0.7l0,0c0.7,0.3,1,1.3,0.7,2.1
				l0,0C250.4,95,249.6,95.3,248.7,95L248.7,95C248.7,95,248.7,95,248.7,95z M256.6,81.8c-0.7-0.5-0.8-1.5-0.3-2.1l0,0
				c0.5-0.7,1.5-0.8,2.1-0.3l0,0c0.7,0.5,0.8,1.5,0.3,2.2l0,0c-0.4,0.5-1.2,0.7-1.8,0.5l0,0C256.9,81.9,256.7,81.9,256.6,81.8z
				 M266.9,70.5c-0.5-0.6-0.5-1.6,0.2-2.1l0,0c0.7-0.6,1.6-0.5,2.2,0.1l0,0c0.6,0.6,0.5,1.6-0.1,2.1l0,0c-0.4,0.4-1.1,0.5-1.6,0.3
				l0,0C267.4,70.8,267.1,70.7,266.9,70.5z M279.3,61.2c-0.4-0.7-0.2-1.6,0.5-2.1l0,0l0,0l0,0c0.7-0.4,1.7-0.2,2.1,0.5l0,0
				c0.4,0.7,0.2,1.6-0.5,2.1l0,0c-0.4,0.2-0.9,0.3-1.4,0.1l0,0C279.7,61.8,279.4,61.6,279.3,61.2z M292.9,54.1
				c-0.3-0.8,0.1-1.7,0.8-2l0,0l0,0l0,0c0.8-0.4,1.7,0.1,2,0.9l0,0c0.3,0.8-0.1,1.7-0.9,2l0,0c-0.4,0.2-0.8,0.2-1.1,0.1l0,0
				C293.3,54.8,293,54.6,292.9,54.1z M399.3,92.5L399.3,92.5c-0.5-0.6-0.4-1.6,0.3-2.1l0,0c0.6-0.5,1.6-0.4,2.1,0.3l0,0
				c0.5,0.6,0.4,1.6-0.3,2.1l0,0c-0.4,0.3-1,0.4-1.5,0.2l0,0C399.7,92.9,399.5,92.7,399.3,92.5z M307.5,49.4
				c-0.2-0.9,0.3-1.7,1.2-1.8l0,0c0.8-0.2,1.7,0.4,1.8,1.2l0,0c0.2,0.8-0.4,1.6-1.2,1.8l0,0c-0.3,0-0.6,0-0.9-0.1l0,0
				C308,50.3,307.6,49.9,307.5,49.4z M389.9,80.4c-0.6-0.7-0.4-1.6,0.2-2.2l0,0c0.7-0.5,1.6-0.4,2.1,0.3l0,0
				c0.6,0.7,0.4,1.6-0.2,2.2l0,0c-0.5,0.3-1,0.4-1.5,0.2l0,0C390.3,80.8,390,80.6,389.9,80.4z M322.7,47.4c0-0.8,0.6-1.5,1.5-1.6
				l0,0c0.9,0,1.6,0.7,1.6,1.6l0,0c0,0.8-0.7,1.5-1.5,1.5l0,0c-0.2,0-0.4,0-0.6-0.1l0,0C323.1,48.6,322.7,48,322.7,47.4z
				 M379.7,69.3c-0.6-0.6-0.7-1.5-0.1-2.2l0,0c0.6-0.6,1.5-0.7,2.2-0.1l0,0c0.6,0.6,0.7,1.5,0.1,2.2l0,0c-0.4,0.5-1.1,0.6-1.7,0.4
				l0,0C380,69.5,379.8,69.5,379.7,69.3z M338,48.3c0.2-0.9,0.9-1.4,1.8-1.3l0,0c0.8,0.2,1.4,0.9,1.2,1.8l0,0
				c-0.2,0.8-0.9,1.4-1.7,1.2l0,0c-0.1,0-0.2,0-0.3-0.1l0,0C338.3,49.7,337.9,49,338,48.3z M367.5,60.5c-0.7-0.4-0.9-1.4-0.6-2.1
				l0,0c0.4-0.7,1.4-1,2.1-0.5l0,0c0.7,0.4,0.9,1.4,0.6,2.1l0,0c-0.4,0.7-1.3,0.9-1.9,0.7l0,0C367.6,60.6,367.6,60.5,367.5,60.5z
				 M353,52c0.2-0.8,1.2-1.2,1.9-0.9l0,0c0,0,0,0,0,0l0,0c0.8,0.3,1.2,1.2,0.9,2l0,0c-0.3,0.8-1.2,1.2-2,0.9l0,0l0,0l0,0
				C353.1,53.7,352.7,52.8,353,52z"/>
		</g>
		<g>
			<path fill="#929497" d="M62.1,379.3c-0.5-0.6-0.4-1.6,0.3-2.1l0,0c0.6-0.5,1.6-0.4,2.1,0.3l0,0c0.5,0.6,0.4,1.6-0.3,2.1l0,0
				c-0.4,0.3-1,0.4-1.5,0.2l0,0C62.5,379.7,62.3,379.6,62.1,379.3z M53.8,366.1C53.8,366.1,53.8,366.1,53.8,366.1L53.8,366.1
				c-0.3-0.8,0-1.7,0.7-2.1l0,0c0.8-0.3,1.7-0.1,2.1,0.7l0,0c0.3,0.8,0,1.7-0.8,2.1l0,0c-0.4,0.2-0.8,0.2-1.2,0l0,0
				C54.3,366.7,54,366.5,53.8,366.1z M48.4,351.4c-0.2-0.8,0.3-1.7,1.1-1.9l0,0c0.9-0.2,1.7,0.3,1.9,1.1l0,0
				c0.2,0.8-0.3,1.7-1.1,1.8l0,0c-0.3,0.1-0.6,0.1-0.9,0l0,0C48.9,352.3,48.6,351.9,48.4,351.4z M46,336L46,336L46,336
				c-0.1-0.8,0.6-1.6,1.5-1.6l0,0c0.8,0,1.6,0.6,1.6,1.4l0,0c0.1,0.8-0.6,1.6-1.5,1.6l0,0c-0.2,0-0.4,0-0.6-0.1l0,0
				C46.5,337.1,46.1,336.6,46,336z M46.4,320.4c0.1-0.8,0.9-1.5,1.7-1.4l0,0c0.9,0.1,1.5,0.8,1.4,1.6l0,0c-0.1,0.8-0.9,1.5-1.7,1.4
				l0,0c-0.2,0-0.3,0-0.4-0.1l0,0C46.7,321.7,46.3,321.1,46.4,320.4z M49.1,305.1c0.2-0.8,1-1.3,1.9-1.1l0,0
				c0.8,0.2,1.3,1.1,1.1,1.9l0,0c-0.2,0.8-1,1.4-1.9,1.1l0,0c0,0-0.1,0-0.2-0.1l0,0C49.3,306.6,48.9,305.8,49.1,305.1z M54.9,292.4
				c-0.7-0.3-1.1-1.3-0.7-2l0,0c0.4-0.8,1.3-1.1,2-0.8l0,0c0.8,0.3,1.2,1.2,0.8,2l0,0C56.7,292.3,55.8,292.7,54.9,292.4L54.9,292.4
				C55,292.4,55,292.4,54.9,292.4z M62.4,278.9c-0.7-0.5-0.8-1.4-0.3-2.1l0,0c0.5-0.7,1.4-0.9,2.1-0.4l0,0c0.7,0.5,0.8,1.5,0.4,2.2
				l0,0c-0.4,0.5-1.2,0.7-1.8,0.5l0,0C62.6,279,62.5,279,62.4,278.9z M72.5,267.4c-0.6-0.7-0.5-1.6,0.1-2.2l0,0
				c0.6-0.5,1.6-0.5,2.2,0.1l0,0c0.6,0.7,0.5,1.6-0.1,2.2l0,0c-0.4,0.4-1.1,0.5-1.6,0.3l0,0C72.9,267.7,72.6,267.5,72.5,267.4z
				 M84.8,258.3c-0.4-0.8-0.1-1.7,0.6-2.1l0,0c0.8-0.4,1.7-0.2,2.1,0.6l0,0c0.4,0.7,0.2,1.7-0.6,2.1l0,0c-0.4,0.2-0.9,0.3-1.3,0.1
				l0,0C85.3,258.8,85,258.6,84.8,258.3z M98.8,252c-0.3-0.9,0.2-1.7,1-2l0,0c0.8-0.2,1.7,0.2,1.9,1l0,0c0.3,0.8-0.2,1.7-1,1.9l0,0
				c-0.4,0.1-0.7,0.1-1,0l0,0C99.3,252.8,99,252.4,98.8,252z M113.8,248.5c-0.1-0.9,0.5-1.6,1.3-1.7l0,0l0,0l0,0
				c0.9-0.1,1.6,0.5,1.7,1.3l0,0c0.1,0.9-0.5,1.6-1.3,1.7l0,0c-0.2,0.1-0.5,0-0.7-0.1l0,0C114.2,249.5,113.9,249.1,113.8,248.5z
				 M129.1,247.5c0-0.8,0.7-1.5,1.6-1.5l0,0c0.8,0,1.5,0.7,1.5,1.6l0,0c0,0.9-0.8,1.5-1.6,1.5l0,0c-0.2,0-0.4,0-0.5-0.1l0,0
				C129.5,248.8,129.1,248.2,129.1,247.5z M144.5,248.6c0.1-0.8,0.8-1.4,1.7-1.4l0,0c0.8,0.1,1.5,0.9,1.4,1.7l0,0
				c-0.1,0.8-0.9,1.5-1.7,1.4l0,0c-0.2,0-0.3-0.1-0.4-0.1l0,0C144.9,249.9,144.5,249.3,144.5,248.6z M159.8,250.5
				c0.2-0.8,0.9-1.4,1.8-1.3l0,0c0.8,0.1,1.4,0.9,1.3,1.8l0,0c-0.1,0.8-0.9,1.4-1.7,1.3l0,0c-0.1-0.1-0.3,0-0.4-0.1l0,0
				C160.1,252,159.7,251.3,159.8,250.5z M175,252.9c0.1-0.8,0.9-1.4,1.8-1.3l0,0l0,0l0,0c0.8,0.2,1.4,0.9,1.2,1.7l0,0
				c-0.1,0.8-0.9,1.5-1.8,1.3l0,0c-0.1,0-0.2,0-0.3-0.1l0,0C175.3,254.3,174.9,253.6,175,252.9z M190.2,255.4
				c0.1-0.8,0.9-1.4,1.8-1.2l0,0l0,0l0,0c0.8,0.2,1.4,0.9,1.2,1.8l0,0c-0.1,0.8-0.9,1.4-1.8,1.3l0,0c-0.1,0-0.2-0.1-0.3-0.1l0,0
				C190.5,256.8,190.1,256.1,190.2,255.4z M205.4,258c0.2-0.8,0.9-1.4,1.8-1.2l0,0l0,0l0,0c0.8,0.1,1.4,0.9,1.2,1.7l0,0
				c-0.2,0.8-0.9,1.4-1.8,1.3l0,0c-0.1,0-0.2-0.1-0.3-0.1l0,0C205.7,259.4,205.2,258.7,205.4,258z M220.5,260.7
				c0.2-0.8,0.9-1.4,1.8-1.2l0,0c0.8,0.2,1.4,0.9,1.2,1.8l0,0c-0.2,0.8-1,1.4-1.8,1.2l0,0c-0.1,0-0.2,0-0.3-0.1l0,0
				C220.8,262.2,220.4,261.5,220.5,260.7z M235.7,263.5c0.2-0.8,0.9-1.4,1.8-1.2l0,0c0.8,0.1,1.4,0.9,1.2,1.8l0,0
				c-0.2,0.9-1,1.4-1.8,1.3l0,0c-0.1,0-0.2-0.1-0.3-0.1l0,0C235.9,264.9,235.6,264.2,235.7,263.5z M250.8,266.3
				c0.2-0.8,1-1.4,1.8-1.2l0,0c0.8,0.2,1.4,1,1.2,1.8l0,0c-0.2,0.8-1,1.4-1.8,1.2l0,0c-0.1,0-0.2,0-0.3,0l0,0
				C251.1,267.8,250.7,267.1,250.8,266.3z M265.9,269.2c0.2-0.8,1-1.4,1.8-1.2l0,0c0.9,0.2,1.4,1,1.2,1.8l0,0
				c-0.2,0.8-0.9,1.4-1.8,1.2l0,0c-0.1,0-0.2,0-0.3,0l0,0C266.2,270.7,265.8,269.9,265.9,269.2z M281.1,272.1
				c0.2-0.9,0.9-1.4,1.8-1.2l0,0c0.8,0.2,1.4,0.9,1.2,1.8l0,0c-0.2,0.8-1,1.4-1.8,1.2l0,0c-0.1,0-0.2-0.1-0.3-0.1l0,0
				C281.3,273.5,280.9,272.8,281.1,272.1z M296.2,275c0.2-0.9,1-1.4,1.8-1.2l0,0c0.8,0.2,1.4,0.9,1.2,1.8l0,0
				c-0.2,0.8-1,1.4-1.8,1.2l0,0c-0.1,0-0.2-0.1-0.2-0.1l0,0C296.4,276.4,296,275.7,296.2,275z M311.3,277.9c0.2-0.9,0.9-1.4,1.8-1.2
				l0,0c0.8,0.2,1.4,0.9,1.2,1.8l0,0c-0.2,0.8-1,1.4-1.8,1.2l0,0c-0.1,0-0.2-0.1-0.3-0.1l0,0C311.6,279.3,311.1,278.6,311.3,277.9z"
				/>
		</g>
	</g>
	<g>
		<g>
			<path fill="#929497" d="M305,263.2c-0.3-0.1-0.6-0.4-0.7-0.7c-0.2-0.3-0.2-0.6-0.1-1c0.1-0.3,0.4-0.6,0.6-0.7
				c0.7-0.3,1.5,0,1.7,0.7c0.2,0.3,0.1,0.6,0,0.9c-0.1,0.3-0.3,0.6-0.7,0.7C305.8,263.3,305.4,263.3,305,263.2z"/>
		</g>
		<g>
			<path fill="#929497" d="M295.1,250.8L295.1,250.8L295.1,250.8c-0.4-0.6-0.4-1.3,0.2-1.8l0,0c0.6-0.4,1.3-0.3,1.8,0.2l0,0
				c0.4,0.6,0.3,1.3-0.2,1.8l0,0c-0.4,0.3-0.8,0.3-1.3,0.2l0,0C295.4,251.1,295.3,251,295.1,250.8z M285.7,238.9L285.7,238.9
				L285.7,238.9c-0.4-0.6-0.3-1.3,0.2-1.8l0,0c0.6-0.4,1.4-0.4,1.8,0.2l0,0c0.4,0.6,0.4,1.3-0.2,1.8l0,0c-0.4,0.3-0.8,0.3-1.3,0.2
				l0,0C286,239.2,285.8,239.1,285.7,238.9z M276.2,226.9c-0.4-0.6-0.4-1.3,0.2-1.8l0,0c0.6-0.4,1.4-0.3,1.8,0.2l0,0
				c0.4,0.6,0.4,1.3-0.2,1.8l0,0c-0.3,0.3-0.8,0.3-1.2,0.2l0,0C276.6,227.2,276.4,227.1,276.2,226.9z M266.9,214.8
				c-0.4-0.5-0.3-1.3,0.3-1.8l0,0c0.6-0.4,1.3-0.4,1.8,0.2l0,0c0.4,0.6,0.3,1.4-0.2,1.8l0,0c-0.4,0.2-0.8,0.3-1.3,0.2l0,0
				C267.2,215.2,267,215,266.9,214.8z M257.8,202.7C257.8,202.7,257.8,202.7,257.8,202.7L257.8,202.7c-0.4-0.6-0.3-1.4,0.3-1.8l0,0
				c0.6-0.4,1.3-0.3,1.8,0.3l0,0c0.4,0.6,0.3,1.4-0.3,1.8l0,0c-0.4,0.2-0.8,0.3-1.2,0.1l0,0C258.1,203,257.9,202.9,257.8,202.7z
				 M248.8,190.3c-0.4-0.6-0.3-1.4,0.3-1.8l0,0c0.6-0.4,1.4-0.3,1.8,0.3l0,0c0.4,0.6,0.2,1.4-0.4,1.8l0,0c-0.3,0.3-0.8,0.3-1.2,0.2
				l0,0C249.2,190.7,249,190.5,248.8,190.3z M240.4,177.5c-0.4-0.6-0.2-1.4,0.5-1.7l0,0c0.6-0.4,1.4-0.2,1.8,0.4l0,0
				c0.4,0.6,0.2,1.4-0.4,1.8l0,0c-0.4,0.2-0.8,0.2-1.1,0.1l0,0C240.8,177.9,240.5,177.8,240.4,177.5z M233.4,163.8
				c-0.3-0.7,0-1.4,0.7-1.7l0,0c0.7-0.3,1.4,0,1.7,0.7l0,0c0.2,0.6-0.1,1.4-0.7,1.7l0,0c-0.3,0.1-0.7,0.1-0.9,0l0,0
				C233.7,164.4,233.5,164.1,233.4,163.8z M228.5,149.2c-0.2-0.7,0.2-1.4,0.9-1.6l0,0c0.7-0.2,1.4,0.3,1.6,0.9l0,0
				c0.2,0.7-0.2,1.4-0.9,1.6l0,0c-0.3,0-0.6,0.1-0.8,0l0,0C228.9,150,228.6,149.6,228.5,149.2z M226,134c-0.1-0.7,0.5-1.3,1.2-1.3
				l0,0c0.7-0.1,1.3,0.5,1.4,1.1l0,0c0,0.7-0.5,1.4-1.2,1.4l0,0c-0.2,0-0.4,0-0.6-0.1l0,0C226.4,134.9,226,134.5,226,134z
				 M226,118.6c0.1-0.7,0.7-1.2,1.4-1.2l0,0c0.7,0.1,1.2,0.7,1.2,1.4l0,0c-0.1,0.7-0.6,1.2-1.4,1.2l0,0c-0.1,0-0.3,0-0.4-0.1l0,0
				C226.3,119.7,226,119.2,226,118.6z M228.7,103.4c0.2-0.7,0.9-1.1,1.6-0.9l0,0c0.7,0.2,1.1,0.9,0.9,1.6l0,0
				c-0.2,0.7-0.9,1.1-1.6,0.9l0,0c-0.1,0-0.1,0-0.1-0.1l0,0C228.8,104.7,228.5,104.1,228.7,103.4z M234.6,90.6
				c-0.6-0.3-0.9-1.1-0.6-1.7l0,0c0.3-0.6,1.1-0.9,1.7-0.6l0,0c0.7,0.3,0.9,1.1,0.7,1.7l0,0C236,90.6,235.3,90.9,234.6,90.6
				L234.6,90.6C234.6,90.6,234.6,90.6,234.6,90.6z M241.9,77.3c-0.6-0.4-0.7-1.2-0.3-1.8l0,0c0.4-0.6,1.2-0.7,1.8-0.3l0,0
				c0.6,0.4,0.7,1.2,0.4,1.7l0,0c-0.4,0.5-1,0.7-1.6,0.4l0,0C242.1,77.4,242,77.4,241.9,77.3z M251.4,65.4c-0.5-0.5-0.5-1.3,0-1.8
				l0,0c0.5-0.5,1.3-0.5,1.8,0l0,0c0.5,0.5,0.5,1.3,0.1,1.8l0,0c-0.4,0.4-0.9,0.5-1.4,0.3l0,0C251.7,65.6,251.5,65.5,251.4,65.4z
				 M262.7,55.2c-0.4-0.6-0.4-1.3,0.2-1.8l0,0c0.6-0.4,1.4-0.3,1.8,0.3l0,0c0.4,0.5,0.3,1.3-0.3,1.8l0,0c-0.4,0.3-0.8,0.3-1.2,0.2
				l0,0C263,55.5,262.8,55.4,262.7,55.2z M275.3,46.7c-0.4-0.6-0.2-1.4,0.5-1.7l0,0c0.6-0.4,1.4-0.1,1.7,0.5l0,0
				c0.4,0.6,0.2,1.4-0.5,1.7l0,0c-0.4,0.2-0.7,0.2-1.1,0.1l0,0C275.7,47.2,275.4,47,275.3,46.7z M288.9,40c-0.2-0.6,0-1.4,0.8-1.6
				l0,0c0.6-0.2,1.4,0.1,1.7,0.7l0,0c0.2,0.7-0.1,1.4-0.7,1.7l0,0c-0.3,0.1-0.6,0.1-0.9,0l0,0C289.4,40.6,289.1,40.4,288.9,40z
				 M303.5,35.4c-0.2-0.7,0.3-1.4,0.9-1.5l0,0c0.7-0.2,1.4,0.3,1.6,0.9l0,0c0.2,0.7-0.3,1.4-0.9,1.6l0,0c-0.3,0-0.6,0-0.8-0.1l0,0
				C303.9,36.1,303.6,35.8,303.5,35.4z M399.6,68.9c-0.4-0.6-0.3-1.3,0.2-1.8l0,0c0.6-0.4,1.3-0.4,1.8,0.2l0,0
				c0.4,0.6,0.3,1.4-0.2,1.8l0,0c-0.3,0.3-0.8,0.3-1.3,0.2l0,0C399.9,69.2,399.8,69,399.6,68.9z M318.5,33c0-0.7,0.5-1.3,1.2-1.3
				l0,0c0.7,0,1.3,0.5,1.3,1.2l0,0c0,0.7-0.5,1.3-1.2,1.4l0,0c-0.2,0-0.4,0-0.6-0.1l0,0C318.9,34,318.6,33.6,318.5,33z M389.2,58.1
				c-0.5-0.5-0.6-1.3-0.1-1.8l0,0c0.5-0.5,1.3-0.6,1.8-0.1l0,0c0.5,0.4,0.6,1.3,0.1,1.8l0,0c-0.4,0.4-0.9,0.5-1.4,0.3l0,0
				C389.5,58.3,389.3,58.2,389.2,58.1z M333.7,33.2c0.1-0.7,0.7-1.3,1.4-1.2l0,0l0,0l0,0c0.7,0.1,1.2,0.7,1.2,1.4l0,0
				c-0.1,0.7-0.7,1.2-1.4,1.1l0,0c-0.1,0-0.2,0-0.3-0.1l0,0C334,34.3,333.7,33.8,333.7,33.2z M377.2,49.1c-0.6-0.4-0.7-1.2-0.4-1.8
				l0,0c0.4-0.6,1.2-0.8,1.8-0.4l0,0c0.6,0.4,0.8,1.2,0.4,1.8l0,0c-0.3,0.5-1,0.8-1.5,0.6l0,0C377.3,49.2,377.3,49.2,377.2,49.1z
				 M348.7,35.6c0.2-0.6,0.9-1.1,1.6-0.9l0,0c0.7,0.2,1.1,0.9,0.9,1.5l0,0c-0.2,0.7-0.9,1.1-1.6,0.9l0,0c0,0-0.1,0-0.1-0.1l0,0
				C348.9,36.9,348.6,36.3,348.7,35.6z M363.9,42.1c-0.6-0.3-0.9-1-0.7-1.7l0,0c0.3-0.6,1-1,1.7-0.7l0,0l0,0l0,0
				c0.7,0.3,1,1,0.7,1.7l0,0C365.3,42.1,364.6,42.4,363.9,42.1L363.9,42.1C363.9,42.1,363.9,42.1,363.9,42.1z"/>
		</g>
		<g>
			<path fill="#929497" d="M45.2,379.7c-0.4-0.6-0.2-1.4,0.4-1.8l0,0c0.6-0.4,1.4-0.2,1.8,0.4l0,0c0.4,0.6,0.2,1.4-0.4,1.8l0,0
				c-0.4,0.2-0.8,0.2-1.1,0.1l0,0C45.5,380.1,45.3,379.9,45.2,379.7z M38.2,365.8c-0.2-0.6,0.1-1.4,0.8-1.7l0,0
				c0.6-0.2,1.4,0.1,1.6,0.7l0,0c0.3,0.7,0,1.4-0.7,1.6l0,0c-0.3,0.1-0.7,0.1-0.9,0l0,0C38.7,366.4,38.4,366.2,38.2,365.8z
				 M33.8,351L33.8,351L33.8,351c-0.1-0.7,0.3-1.4,1-1.5l0,0c0.7-0.1,1.4,0.3,1.5,1l0,0c0.2,0.7-0.3,1.3-1,1.5l0,0
				c-0.2,0.1-0.5,0-0.7-0.1l0,0C34.2,351.7,33.9,351.4,33.8,351z M31.8,335.6c-0.1-0.7,0.5-1.3,1.2-1.3l0,0c0.7,0,1.3,0.5,1.4,1.3
				l0,0c0,0.7-0.5,1.3-1.2,1.3l0,0c-0.2,0-0.4,0-0.5-0.1l0,0C32.2,336.5,31.8,336.1,31.8,335.6z M32.1,320.1
				c0.1-0.7,0.7-1.3,1.4-1.2l0,0c0.7,0.1,1.2,0.7,1.2,1.4l0,0c-0.1,0.7-0.7,1.3-1.4,1.2l0,0c-0.2,0-0.3,0-0.4-0.1l0,0
				C32.4,321.2,32.1,320.7,32.1,320.1z M34.5,304.8c0.1-0.7,0.8-1.1,1.5-0.9l0,0c0.7,0.1,1.1,0.8,1,1.5l0,0c-0.2,0.7-0.8,1.2-1.5,1
				l0,0c-0.1,0-0.1-0.1-0.2-0.1l0,0C34.7,306.1,34.4,305.4,34.5,304.8z M38.9,290c0.3-0.7,1-1,1.6-0.7l0,0c0.7,0.3,1,1,0.8,1.7l0,0
				c-0.3,0.7-1,1-1.7,0.7l0,0l0,0l0,0C39,291.4,38.7,290.6,38.9,290z M46.1,277.7c-0.6-0.3-0.8-1.1-0.5-1.7l0,0
				c0.4-0.6,1.1-0.8,1.8-0.5l0,0c0.6,0.4,0.8,1.1,0.5,1.7l0,0c-0.3,0.6-1,0.8-1.6,0.6l0,0C46.2,277.8,46.2,277.8,46.1,277.7z
				 M54.8,265.1c-0.5-0.5-0.6-1.3-0.1-1.8l0,0c0.4-0.5,1.2-0.6,1.8-0.2l0,0c0.5,0.5,0.6,1.3,0.2,1.8l0,0c-0.4,0.4-1,0.5-1.5,0.4l0,0
				C55,265.3,54.9,265.2,54.8,265.1z M65.5,254.3c-0.4-0.5-0.4-1.3,0.2-1.8l0,0c0.6-0.4,1.4-0.3,1.8,0.2l0,0
				c0.4,0.6,0.3,1.4-0.2,1.8l0,0c-0.4,0.3-0.9,0.4-1.3,0.2l0,0C65.9,254.6,65.7,254.4,65.5,254.3z M78.1,245.5
				c-0.3-0.6-0.1-1.4,0.5-1.7l0,0c0.6-0.4,1.4-0.1,1.7,0.5l0,0c0.4,0.6,0.1,1.4-0.5,1.7l0,0c-0.4,0.2-0.7,0.2-1.1,0.1l0,0
				C78.5,246,78.3,245.8,78.1,245.5z M92,239.1c-0.2-0.7,0.1-1.4,0.8-1.7l0,0c0.6-0.2,1.4,0.2,1.6,0.8l0,0c0.2,0.7-0.1,1.4-0.8,1.6
				l0,0c-0.3,0.1-0.6,0.1-0.9,0l0,0C92.4,239.7,92.2,239.4,92,239.1z M106.8,235c-0.1-0.7,0.4-1.3,1-1.5l0,0c0,0,0,0,0,0.1l0,0
				c0.7-0.2,1.4,0.3,1.5,1l0,0c0.1,0.7-0.4,1.3-1,1.5l0,0c-0.2,0-0.5,0-0.7,0l0,0C107.2,235.8,106.9,235.4,106.8,235z M122,233.2
				c0-0.7,0.5-1.3,1.2-1.3l0,0c0.7-0.1,1.3,0.5,1.3,1.2l0,0c0,0.7-0.6,1.3-1.2,1.3l0,0c-0.2,0-0.4,0-0.5-0.1l0,0
				C122.4,234.2,122.1,233.7,122,233.2z M137.4,233.4c0.1-0.7,0.7-1.2,1.4-1.1l0,0c0.7,0,1.2,0.6,1.2,1.3l0,0
				c-0.1,0.7-0.7,1.2-1.4,1.2l0,0c-0.1,0-0.2,0-0.4-0.1l0,0C137.7,234.5,137.3,234,137.4,233.4z M152.7,234.9
				c0.1-0.7,0.7-1.2,1.4-1.1l0,0l0,0l0,0c0.7,0.1,1.2,0.7,1.1,1.4l0,0c-0.1,0.7-0.7,1.2-1.4,1.1l0,0c-0.1,0-0.2,0-0.3-0.1l0,0
				C152.9,236.1,152.6,235.6,152.7,234.9z M167.9,237.1c0.1-0.7,0.8-1.2,1.5-1.1l0,0c0.7,0.1,1.2,0.7,1.1,1.5l0,0
				c-0.1,0.7-0.7,1.1-1.5,1l0,0c-0.1,0-0.2,0-0.3,0l0,0C168.1,238.2,167.8,237.7,167.9,237.1z M183,239.5c0.1-0.7,0.8-1.2,1.5-1l0,0
				c0.7,0.1,1.2,0.7,1.1,1.5l0,0c-0.1,0.7-0.8,1.1-1.4,1l0,0c-0.1,0-0.2,0-0.3,0l0,0C183.3,240.7,183,240.1,183,239.5z M198.2,242.1
				c0.1-0.7,0.7-1.2,1.5-1.1l0,0c0.7,0.1,1.2,0.8,1.1,1.5l0,0c-0.1,0.7-0.8,1.1-1.5,1l0,0c-0.1,0-0.2,0-0.3,0l0,0
				C198.5,243.3,198.1,242.7,198.2,242.1z M213.3,244.7c0.1-0.7,0.8-1.2,1.5-1l0,0c0.7,0.1,1.2,0.8,1,1.4l0,0
				c-0.1,0.7-0.8,1.2-1.5,1.1l0,0c-0.1,0-0.1-0.1-0.2-0.1l0,0C213.5,245.9,213.2,245.3,213.3,244.7z M228.5,247.4
				c0.1-0.7,0.8-1.2,1.5-1l0,0c0.7,0.1,1.2,0.8,1.1,1.5l0,0c-0.2,0.7-0.8,1.2-1.5,1.1l0,0c-0.1,0-0.1-0.1-0.2-0.1l0,0
				C228.7,248.6,228.3,248.1,228.5,247.4z M243.5,250.2c0.1-0.7,0.8-1.2,1.5-1l0,0l0,0l0,0c0.7,0.1,1.1,0.8,1,1.5l0,0
				c-0.1,0.7-0.8,1.1-1.5,1l0,0c-0.1,0-0.1-0.1-0.2-0.1l0,0C243.8,251.4,243.4,250.8,243.5,250.2z M258.6,253.1
				c0.2-0.7,0.8-1.2,1.5-1.1l0,0c0.7,0.2,1.2,0.8,1,1.5l0,0c-0.1,0.7-0.8,1.2-1.5,1.1l0,0c0,0-0.1-0.1-0.2-0.1l0,0
				C258.9,254.3,258.5,253.7,258.6,253.1z M273.7,255.9c0.1-0.7,0.8-1.2,1.5-1l0,0c0.7,0.1,1.1,0.8,1,1.5l0,0
				c-0.1,0.7-0.8,1.1-1.5,1l0,0c-0.1,0-0.1-0.1-0.2-0.1l0,0C274,257.1,273.6,256.5,273.7,255.9z M288.8,258.8c0.2-0.7,0.8-1.2,1.5-1
				l0,0c0.7,0.1,1.2,0.8,1,1.5l0,0c-0.1,0.7-0.8,1.1-1.5,1l0,0c0,0-0.1-0.1-0.2-0.1l0,0C289,260,288.7,259.4,288.8,258.8z"/>
		</g>
	</g>
	<g>
		<g>
			<path fill="#929497" d="M269.6,241.4c-0.2-0.1-0.4-0.3-0.5-0.5c-0.1-0.3-0.1-0.6-0.1-0.8c0.1-0.2,0.3-0.4,0.5-0.6
				c0.5-0.2,1.1,0,1.4,0.5c0.1,0.2,0.1,0.5,0,0.8c-0.1,0.2-0.3,0.4-0.5,0.6C270.2,241.5,269.9,241.5,269.6,241.4z"/>
		</g>
		<g>
			<path fill="#929497" d="M259.8,229c-0.3-0.4-0.2-1.1,0.2-1.4l0,0c0.4-0.4,1.1-0.3,1.4,0.2l0,0c0.3,0.5,0.2,1.1-0.2,1.4l0,0
				c-0.3,0.3-0.7,0.3-1,0.2l0,0C260.1,229.2,259.9,229.1,259.8,229z M250.5,216.8C250.5,216.8,250.5,216.8,250.5,216.8L250.5,216.8
				c-0.4-0.4-0.3-1.1,0.2-1.4l0,0c0.5-0.4,1.1-0.2,1.5,0.2l0,0c0.3,0.5,0.2,1.1-0.2,1.4l0,0c-0.3,0.2-0.6,0.2-1,0.1l0,0
				C250.8,217,250.6,216.9,250.5,216.8z M241.4,204.4c-0.4-0.5-0.2-1.1,0.2-1.4l0,0c0.5-0.4,1.1-0.2,1.4,0.2l0,0
				c0.3,0.5,0.2,1.1-0.3,1.4l0,0c-0.3,0.2-0.7,0.3-1,0.2l0,0C241.6,204.7,241.5,204.6,241.4,204.4z M232.6,191.8
				c-0.3-0.5-0.2-1.1,0.3-1.4l0,0c0.5-0.3,1.1-0.2,1.4,0.3l0,0c0.3,0.5,0.2,1.1-0.3,1.4l0,0c-0.3,0.2-0.6,0.2-0.9,0.1l0,0
				C232.9,192.1,232.7,192,232.6,191.8z M224.6,178.6C224.6,178.6,224.6,178.6,224.6,178.6L224.6,178.6c-0.2-0.5-0.1-1.1,0.4-1.4
				l0,0c0.5-0.2,1.1-0.1,1.4,0.4l0,0c0.3,0.5,0.1,1.1-0.4,1.4l0,0c-0.3,0.2-0.6,0.2-0.9,0.1l0,0C224.9,179,224.7,178.8,224.6,178.6z
				 M218.3,164.5c-0.2-0.5,0.1-1.1,0.6-1.3l0,0c0.5-0.2,1.1,0.1,1.3,0.6l0,0c0.2,0.5-0.1,1.1-0.6,1.3l0,0c-0.2,0.1-0.5,0.1-0.8,0
				l0,0C218.6,165,218.3,164.8,218.3,164.5z M213.9,149.7c-0.1-0.5,0.2-1.1,0.8-1.2l0,0c0.5-0.1,1.1,0.2,1.2,0.8l0,0
				c0.1,0.5-0.2,1.1-0.8,1.2l0,0c-0.2,0.1-0.4,0.1-0.6,0l0,0C214.2,150.3,213.9,150,213.9,149.7z M211.6,134.4
				c-0.1-0.6,0.4-1.1,0.9-1.1l0,0c0.6,0,1.1,0.4,1.1,0.9l0,0c0.1,0.6-0.4,1.1-0.9,1.1l0,0c-0.2,0-0.3,0-0.5-0.1l0,0
				C211.9,135.1,211.6,134.8,211.6,134.4z M211.6,118.9c0-0.5,0.5-1,1.1-0.9l0,0c0.6,0.1,1,0.6,0.9,1.1l0,0c-0.1,0.6-0.6,1-1.1,0.9
				l0,0c-0.1,0-0.2,0-0.3-0.1l0,0C211.8,119.8,211.6,119.4,211.6,118.9z M213.8,103.7c0.1-0.6,0.7-0.9,1.2-0.8l0,0
				c0.6,0.1,0.9,0.7,0.8,1.2l0,0c-0.1,0.5-0.7,0.9-1.2,0.7l0,0c-0.1,0-0.1,0-0.2,0l0,0C214,104.6,213.7,104.1,213.8,103.7z
				 M218.4,88.8c0.2-0.5,0.8-0.8,1.3-0.6l0,0c0.5,0.2,0.8,0.8,0.6,1.3l0,0c-0.2,0.5-0.8,0.8-1.3,0.6l0,0
				C218.4,90,218.2,89.4,218.4,88.8z M225.4,76.3c-0.5-0.3-0.7-0.9-0.4-1.4l0,0c0.3-0.5,0.9-0.6,1.4-0.4l0,0
				c0.5,0.3,0.6,0.9,0.4,1.4l0,0c-0.3,0.4-0.8,0.6-1.3,0.4l0,0C225.5,76.3,225.5,76.3,225.4,76.3z M233.9,63.5
				c-0.4-0.3-0.5-1-0.2-1.4l0,0c0.3-0.4,1-0.5,1.4-0.2l0,0c0.4,0.3,0.5,1,0.2,1.4l0,0c-0.2,0.3-0.7,0.5-1.2,0.3l0,0
				C234.1,63.6,234,63.6,233.9,63.5z M244.1,52.1c-0.4-0.4-0.3-1.1,0-1.4l0,0c0.4-0.4,1.1-0.4,1.5,0l0,0c0.4,0.4,0.4,1,0,1.4l0,0
				c-0.3,0.3-0.8,0.4-1.1,0.2l0,0C244.4,52.3,244.2,52.2,244.1,52.1z M255.8,42.2c-0.4-0.5-0.3-1.1,0.2-1.5l0,0
				c0.5-0.3,1.1-0.2,1.4,0.2l0,0c0.3,0.5,0.2,1.1-0.2,1.4l0,0c-0.3,0.2-0.6,0.2-1,0.1l0,0C256.1,42.4,255.9,42.3,255.8,42.2z
				 M268.7,33.8c-0.2-0.5-0.1-1.1,0.4-1.4l0,0c0.5-0.3,1.1-0.1,1.4,0.4l0,0c0.3,0.5,0.1,1.1-0.4,1.4l0,0c-0.3,0.2-0.6,0.2-0.8,0.1
				l0,0C269,34.1,268.8,34,268.7,33.8z M282.4,27c-0.2-0.5,0-1.1,0.5-1.3l0,0c0.5-0.2,1.2,0,1.4,0.6l0,0c0.2,0.5,0,1.1-0.6,1.3l0,0
				c-0.3,0.1-0.5,0.1-0.8,0l0,0C282.8,27.5,282.6,27.3,282.4,27z M297,22c-0.2-0.6,0.2-1.1,0.7-1.3l0,0l0,0l0,0
				c0.5-0.1,1.1,0.2,1.2,0.8l0,0c0.2,0.5-0.2,1.1-0.7,1.3l0,0c-0.2,0-0.4,0-0.6-0.1l0,0C297.3,22.6,297,22.4,297,22z M312,19.1
				c-0.1-0.6,0.4-1.1,0.9-1.1l0,0l0,0l0,0c0.5-0.1,1,0.3,1.1,0.9l0,0c0.1,0.6-0.4,1.1-0.9,1.1l0,0c-0.2,0-0.3,0-0.5-0.1l0,0
				C312.3,19.8,312.1,19.5,312,19.1z M327.3,18.3c0-0.6,0.5-1,1.1-1l0,0c0.6,0,1,0.5,1,1l0,0c0,0.6-0.5,1-1.1,1l0,0
				c-0.1,0-0.2,0-0.3-0.1l0,0C327.6,19.1,327.3,18.7,327.3,18.3z M398,46.2c-0.5-0.4-0.5-1-0.1-1.5l0,0c0.4-0.4,1-0.5,1.5-0.1l0,0
				c0.4,0.4,0.5,1,0.1,1.4l0,0c-0.3,0.4-0.8,0.5-1.2,0.3l0,0C398.2,46.3,398.1,46.2,398,46.2z M342.6,19.6c0.1-0.6,0.6-0.9,1.2-0.8
				l0,0c0.5,0.1,0.9,0.6,0.8,1.2l0,0c-0.1,0.6-0.6,0.9-1.1,0.8l0,0c-0.1,0-0.2,0-0.2,0l0,0C342.8,20.6,342.5,20.1,342.6,19.6z
				 M385.8,37.1c-0.5-0.3-0.6-1-0.3-1.4l0,0c0.3-0.5,1-0.6,1.4-0.3l0,0c0.5,0.3,0.6,0.9,0.3,1.4l0,0c-0.3,0.4-0.8,0.6-1.3,0.4l0,0
				C385.9,37.1,385.8,37.1,385.8,37.1z M357.5,23.1c0.2-0.5,0.8-0.9,1.3-0.7l0,0c0.5,0.2,0.8,0.8,0.6,1.3l0,0
				c-0.2,0.5-0.7,0.9-1.3,0.7l0,0c0,0,0,0-0.1,0l0,0C357.7,24.1,357.4,23.6,357.5,23.1z M372.5,29.8L372.5,29.8
				c-0.5-0.3-0.8-0.9-0.5-1.4l0,0c0.3-0.5,0.9-0.8,1.4-0.5l0,0c0.5,0.3,0.7,0.8,0.5,1.4l0,0C373.6,29.8,373,30,372.5,29.8
				L372.5,29.8C372.5,29.8,372.5,29.8,372.5,29.8z"/>
		</g>
		<g>
			<path fill="#929497" d="M27.5,377.5C27.5,377.5,27.5,377.5,27.5,377.5L27.5,377.5c-0.2-0.5,0-1.2,0.5-1.4l0,0
				c0.5-0.2,1.1,0,1.4,0.5l0,0c0.2,0.5,0,1.2-0.5,1.4l0,0c-0.3,0.1-0.5,0.1-0.8,0l0,0C27.9,377.9,27.7,377.7,27.5,377.5z M22,363.1
				c-0.2-0.6,0.1-1.1,0.7-1.3l0,0c0.6-0.2,1.1,0.2,1.3,0.7l0,0c0.2,0.6-0.1,1.2-0.7,1.3l0,0c-0.2,0.1-0.5,0.1-0.7,0l0,0
				C22.3,363.7,22.1,363.4,22,363.1z M18.6,348c-0.1-0.5,0.2-1.1,0.8-1.2l0,0c0.6-0.1,1.1,0.3,1.2,0.8l0,0c0.1,0.6-0.3,1.1-0.9,1.2
				l0,0c-0.2,0-0.4,0-0.5-0.1l0,0C18.9,348.7,18.7,348.5,18.6,348z M17.3,332.7C17.3,332.7,17.3,332.7,17.3,332.7L17.3,332.7
				c0-0.5,0.5-1,1-1l0,0c0.6,0,1,0.4,1,1l0,0c0,0.6-0.5,1.1-1,1.1l0,0c-0.2,0-0.3,0-0.4-0.1l0,0C17.6,333.5,17.4,333.1,17.3,332.7z
				 M18,317.3c0.1-0.6,0.6-1,1.1-0.9l0,0c0.5,0,0.9,0.5,0.9,1.1l0,0c-0.1,0.6-0.6,1-1.1,0.9l0,0c0,0-0.2,0-0.3,0l0,0
				C18.2,318.2,18,317.8,18,317.3z M20.5,302.1c0.1-0.6,0.7-1,1.2-0.8l0,0c0.6,0.1,1,0.6,0.8,1.2l0,0c-0.1,0.6-0.6,0.9-1.2,0.8l0,0
				c0,0-0.1,0-0.1-0.1l0,0C20.7,303.1,20.4,302.6,20.5,302.1z M24.7,287.3c0.2-0.5,0.8-0.9,1.3-0.6l0,0c0.5,0.2,0.8,0.8,0.6,1.3l0,0
				c-0.2,0.5-0.8,0.8-1.3,0.6l0,0c0,0,0,0,0,0l0,0C24.7,288.4,24.5,287.8,24.7,287.3z M31.3,274.5c-0.5-0.3-0.7-0.9-0.4-1.4l0,0
				c0.3-0.5,0.9-0.7,1.4-0.4l0,0c0.5,0.3,0.7,0.9,0.4,1.4l0,0C32.4,274.6,31.8,274.7,31.3,274.5L31.3,274.5
				C31.3,274.5,31.3,274.5,31.3,274.5z M39.1,261.4c-0.5-0.3-0.5-1-0.2-1.4l0,0l0,0l0,0c0.3-0.5,0.9-0.6,1.4-0.2l0,0
				c0.5,0.3,0.5,1,0.2,1.4l0,0c-0.3,0.4-0.8,0.5-1.2,0.4l0,0C39.3,261.5,39.2,261.5,39.1,261.4z M48.9,249.7c-0.4-0.4-0.4-1,0-1.4
				l0,0c0.4-0.4,1-0.4,1.5,0l0,0c0.4,0.4,0.4,1,0,1.5l0,0c-0.3,0.3-0.8,0.4-1.1,0.2l0,0C49.2,249.9,49,249.8,48.9,249.7z
				 M60.4,239.6c-0.3-0.5-0.2-1.1,0.2-1.4l0,0c0.5-0.4,1.1-0.2,1.5,0.2l0,0c0.3,0.5,0.2,1.1-0.2,1.4l0,0c-0.3,0.2-0.6,0.2-1,0.1l0,0
				C60.7,239.9,60.6,239.7,60.4,239.6z M73.3,231.4c-0.3-0.5-0.1-1.1,0.4-1.4l0,0c0.5-0.2,1.1-0.1,1.4,0.4l0,0
				c0.3,0.5,0.1,1.1-0.4,1.4l0,0c-0.3,0.2-0.6,0.1-0.9,0l0,0C73.7,231.8,73.5,231.6,73.3,231.4z M87.4,225.3
				c-0.2-0.6,0.1-1.1,0.6-1.3l0,0c0.5-0.2,1.1,0.1,1.3,0.6l0,0c0.2,0.5-0.1,1.1-0.6,1.3l0,0c-0.3,0.1-0.5,0.1-0.7,0l0,0
				C87.7,225.8,87.5,225.5,87.4,225.3z M102.1,221.1c-0.1-0.5,0.2-1.1,0.8-1.2l0,0l0,0l0,0c0.5-0.1,1.1,0.2,1.2,0.8l0,0
				c0.2,0.6-0.2,1.1-0.8,1.2l0,0c-0.2,0-0.4,0-0.6-0.1l0,0C102.4,221.7,102.2,221.5,102.1,221.1z M117.3,219
				c-0.1-0.6,0.4-1.1,0.9-1.1l0,0c0.6-0.1,1,0.4,1.1,1l0,0c0,0.5-0.4,1-0.9,1.1l0,0c-0.1,0.1-0.3,0-0.4-0.1l0,0
				C117.5,219.7,117.3,219.4,117.3,219z M132.6,218.7c0-0.6,0.5-1,1.1-1l0,0c0.5,0,1,0.5,0.9,1.1l0,0c0,0.5-0.5,1-1,1l0,0
				c-0.1,0-0.2,0-0.3-0.1l0,0C132.8,219.5,132.5,219.1,132.6,218.7z M147.9,219.8c0.1-0.6,0.6-1,1.1-0.9l0,0
				c0.5,0.1,0.9,0.6,0.9,1.1l0,0c-0.1,0.6-0.6,1-1.1,0.9l0,0c-0.1,0-0.2,0-0.3,0l0,0C148,220.7,147.8,220.3,147.9,219.8z M163,221.7
				c0.1-0.6,0.6-0.9,1.2-0.9l0,0c0.6,0.1,1,0.6,0.9,1.2l0,0c-0.1,0.6-0.6,1-1.1,0.9l0,0c-0.1,0-0.2,0-0.3,0l0,0
				C163.2,222.7,163,222.2,163,221.7z M178.2,224c0.1-0.6,0.6-0.9,1.2-0.9l0,0c0.6,0.1,1,0.7,0.9,1.2l0,0c-0.1,0.6-0.6,1-1.2,0.9
				l0,0c-0.1,0-0.2,0-0.2,0l0,0C178.4,225,178.1,224.5,178.2,224z M193.3,226.5c0.1-0.6,0.6-0.9,1.1-0.8l0,0c0.6,0.1,1,0.6,0.9,1.2
				l0,0c-0.1,0.6-0.7,1-1.2,0.8l0,0c-0.1,0-0.1,0-0.2-0.1l0,0C193.5,227.4,193.2,227,193.3,226.5z M208.4,229.1
				c0.1-0.6,0.6-0.9,1.1-0.8l0,0l0,0l0,0c0.6,0.1,1,0.6,0.9,1.2l0,0c-0.1,0.6-0.6,1-1.2,0.8l0,0c0,0-0.1,0-0.1-0.1l0,0
				C208.6,230.1,208.3,229.6,208.4,229.1z M223.5,231.8c0.1-0.6,0.7-1,1.2-0.8l0,0l0,0l0,0c0.6,0.1,0.9,0.6,0.8,1.2l0,0
				c-0.1,0.6-0.6,0.9-1.1,0.8l0,0c-0.1,0-0.2,0-0.2,0l0,0C223.7,232.8,223.4,232.3,223.5,231.8z M238.6,234.6
				c0.1-0.6,0.6-0.9,1.1-0.8l0,0c0.6,0.1,1,0.7,0.8,1.2l0,0c-0.1,0.6-0.6,0.9-1.2,0.8l0,0c0,0-0.1-0.1-0.2-0.1l0,0
				C238.8,235.5,238.5,235.1,238.6,234.6z M253.6,237.4c0.1-0.6,0.7-1,1.2-0.8l0,0c0.6,0.1,1,0.7,0.8,1.2l0,0
				c-0.1,0.6-0.6,0.9-1.2,0.8l0,0c0,0-0.1-0.1-0.2-0.1l0,0C253.8,238.3,253.5,237.8,253.6,237.4z"/>
		</g>
	</g>
	<g>
		<g>
			<path fill="#929497" d="M235.2,220c-0.2-0.1-0.3-0.2-0.4-0.4c-0.1-0.2-0.1-0.4,0-0.5c0.1-0.2,0.2-0.4,0.4-0.4
				c0.4-0.1,0.9,0,1,0.4c0.1,0.2,0.1,0.4,0,0.6c-0.1,0.1-0.2,0.3-0.4,0.4C235.7,220.1,235.4,220.1,235.2,220z"/>
		</g>
		<g>
			<path fill="#929497" d="M225.8,207.1c-0.3-0.3-0.2-0.8,0.2-1.1l0,0c0.3-0.3,0.8-0.1,1.1,0.2l0,0c0.2,0.4,0.1,0.8-0.2,1.1l0,0
				c-0.2,0.1-0.5,0.2-0.8,0.1l0,0C226,207.3,225.9,207.2,225.8,207.1z M217.1,194.1c-0.2-0.4-0.1-0.9,0.3-1.1l0,0
				c0.4-0.2,0.8-0.1,1.1,0.2l0,0c0.2,0.3,0.1,0.8-0.2,1l0,0c-0.2,0.2-0.5,0.2-0.7,0.1l0,0C217.4,194.4,217.2,194.3,217.1,194.1z
				 M209.5,180.4c-0.2-0.4,0-0.8,0.4-1l0,0c0.4-0.2,0.8-0.1,1,0.3l0,0c0.2,0.4,0,0.8-0.3,1l0,0c-0.2,0.1-0.4,0.1-0.6,0l0,0
				C209.8,180.8,209.6,180.6,209.5,180.4z M203.6,166c-0.1-0.4,0.1-0.8,0.5-1l0,0c0.4-0.2,0.9,0.1,1,0.4l0,0c0.1,0.4-0.1,0.9-0.5,1
				l0,0c-0.2,0-0.3,0-0.5,0l0,0C203.9,166.4,203.7,166.2,203.6,166z M199.5,150.9c-0.1-0.4,0.2-0.8,0.6-0.9l0,0
				c0.4-0.1,0.8,0.2,0.9,0.6l0,0c0.1,0.4-0.2,0.8-0.6,0.9l0,0c-0.2,0-0.3,0-0.4,0l0,0C199.7,151.4,199.5,151.2,199.5,150.9z
				 M197.3,135.4c0-0.4,0.3-0.8,0.7-0.8l0,0c0.5,0,0.8,0.3,0.8,0.7l0,0c0.1,0.4-0.3,0.8-0.7,0.8l0,0c-0.1,0-0.2,0-0.3-0.1l0,0
				C197.5,136,197.3,135.7,197.3,135.4z M197.1,119.8c0.1-0.4,0.4-0.7,0.8-0.7l0,0c0.4,0.1,0.7,0.4,0.7,0.8l0,0
				c-0.1,0.4-0.4,0.7-0.8,0.7l0,0c0,0-0.2,0-0.3,0l0,0C197.3,120.4,197.1,120.1,197.1,119.8z M199,104.3c0.1-0.4,0.5-0.7,0.9-0.6
				l0,0c0.4,0.1,0.7,0.4,0.6,0.8l0,0c-0.1,0.5-0.5,0.7-0.9,0.6l0,0c0,0-0.1,0-0.1-0.1l0,0C199.1,105,198.9,104.6,199,104.3z
				 M202.9,89.1c0.1-0.4,0.6-0.6,1-0.4l0,0c0.4,0.1,0.6,0.5,0.5,1l0,0c-0.2,0.4-0.6,0.6-1,0.4l0,0l0,0l0,0
				C203.1,89.9,202.8,89.5,202.9,89.1z M209.3,75.7c-0.4-0.2-0.5-0.6-0.4-1.1l0,0c0.2-0.4,0.6-0.5,1.1-0.3l0,0
				c0.4,0.1,0.5,0.6,0.3,1l0,0C210.1,75.7,209.7,75.9,209.3,75.7L209.3,75.7L209.3,75.7z M217,62.2c-0.3-0.2-0.4-0.7-0.2-1.1l0,0
				c0.2-0.4,0.7-0.5,1-0.2l0,0c0.4,0.2,0.5,0.7,0.3,1l0,0c-0.2,0.3-0.6,0.4-0.9,0.3l0,0C217.1,62.2,217,62.2,217,62.2z M226.4,49.8
				c-0.3-0.3-0.4-0.7-0.1-1.1l0,0c0.3-0.3,0.8-0.3,1.1,0l0,0c0.3,0.3,0.3,0.7,0.1,1.1l0,0c-0.2,0.2-0.6,0.3-0.9,0.2l0,0
				C226.5,49.9,226.4,49.9,226.4,49.8z M237.2,38.7c-0.3-0.3-0.3-0.8,0-1.1l0,0c0.3-0.3,0.8-0.2,1.1,0l0,0c0.3,0.3,0.2,0.8,0,1.1
				l0,0c-0.3,0.2-0.6,0.3-0.8,0.2l0,0C237.4,38.8,237.3,38.8,237.2,38.7z M249.4,28.9c-0.3-0.3-0.2-0.8,0.1-1l0,0c0,0,0,0,0,0l0,0
				c0.4-0.2,0.8-0.1,1.1,0.2l0,0c0.2,0.4,0.2,0.8-0.2,1.1l0,0c-0.2,0.1-0.5,0.2-0.7,0.1l0,0C249.6,29.2,249.4,29.1,249.4,28.9z
				 M262.5,20.6c-0.2-0.4-0.1-0.8,0.3-1l0,0c0.4-0.2,0.8-0.1,1,0.3l0,0c0.2,0.3,0.1,0.8-0.3,1l0,0c-0.2,0.1-0.4,0.1-0.7,0l0,0
				C262.7,20.9,262.6,20.8,262.5,20.6z M276.5,13.8c-0.2-0.4,0-0.8,0.4-1l0,0c0.4-0.2,0.9,0.1,1,0.4l0,0c0.2,0.4,0,0.8-0.4,1l0,0
				c-0.2,0.1-0.4,0.1-0.6,0l0,0C276.7,14.1,276.6,13.9,276.5,13.8z M291.1,8.6c-0.1-0.4,0.1-0.8,0.5-0.9l0,0l0,0l0,0
				c0.4-0.1,0.8,0.1,0.9,0.5l0,0c0.1,0.4-0.1,0.8-0.5,0.9l0,0c-0.1,0.1-0.3,0-0.5,0l0,0C291.4,9,291.2,8.8,291.1,8.6z M306.3,5.2
				c-0.1-0.4,0.2-0.8,0.7-0.8l0,0c0.4-0.1,0.8,0.2,0.9,0.6l0,0c0.1,0.4-0.2,0.8-0.6,0.9l0,0c-0.2,0-0.3,0-0.4-0.1l0,0
				C306.6,5.7,306.4,5.5,306.3,5.2z M321.9,3.8c0-0.5,0.3-0.8,0.8-0.8l0,0l0,0l0,0c0.4,0,0.8,0.3,0.8,0.7l0,0c0,0.4-0.3,0.8-0.8,0.8
				l0,0c-0.1,0-0.2,0-0.3-0.1l0,0C322.1,4.4,321.9,4.1,321.9,3.8z M337.4,4.3c0.1-0.4,0.4-0.7,0.9-0.6l0,0c0.4,0.1,0.7,0.4,0.7,0.8
				l0,0c-0.1,0.4-0.4,0.8-0.8,0.7l0,0c-0.1,0-0.1-0.1-0.2-0.1l0,0C337.6,5,337.4,4.7,337.4,4.3z M395.8,26c-0.3-0.2-0.4-0.7-0.2-1.1
				l0,0c0.2-0.3,0.7-0.4,1.1-0.2l0,0c0.4,0.2,0.5,0.7,0.2,1.1l0,0c-0.2,0.3-0.6,0.4-0.9,0.2l0,0C395.9,26.1,395.8,26,395.8,26z
				 M352.8,6.8c0.1-0.4,0.5-0.7,0.9-0.6l0,0c0.4,0.1,0.7,0.5,0.6,0.9l0,0c-0.1,0.4-0.5,0.7-0.9,0.6l0,0c0,0,0,0-0.1,0l0,0
				C352.9,7.6,352.7,7.2,352.8,6.8z M382.4,18.2L382.4,18.2c-0.4-0.1-0.5-0.6-0.3-1l0,0c0.2-0.4,0.6-0.5,1-0.3l0,0l0,0l0,0
				c0.4,0.1,0.5,0.6,0.4,1l0,0C383.3,18.3,382.8,18.4,382.4,18.2L382.4,18.2C382.5,18.2,382.5,18.2,382.4,18.2z M367.7,11.1
				c0.2-0.4,0.6-0.6,0.9-0.4l0,0c0.4,0.2,0.6,0.6,0.5,1l0,0c-0.2,0.4-0.6,0.6-1,0.5l0,0l0,0l0,0C367.8,12,367.6,11.5,367.7,11.1z"/>
		</g>
		<g>
			<path fill="#929497" d="M10.5,374.2L10.5,374.2L10.5,374.2c-0.1-0.4,0.1-0.9,0.5-1l0,0c0.4-0.1,0.9,0.1,1,0.4l0,0
				c0.1,0.4-0.1,0.9-0.5,1l0,0c-0.2,0-0.4,0.1-0.6,0l0,0C10.7,374.6,10.6,374.4,10.5,374.2z M6.2,359.5c-0.1-0.4,0.2-0.8,0.6-0.9
				l0,0c0.4-0.1,0.8,0.2,0.9,0.6l0,0c0.1,0.4-0.2,0.8-0.6,0.9l0,0c-0.2,0-0.3,0-0.5-0.1l0,0C6.4,359.9,6.2,359.8,6.2,359.5z
				 M3.7,344.4c-0.1-0.4,0.3-0.8,0.7-0.8l0,0c0.4-0.1,0.8,0.3,0.8,0.7l0,0c0.1,0.4-0.3,0.8-0.7,0.8l0,0c-0.1,0.1-0.3,0-0.4,0l0,0
				C3.9,344.9,3.7,344.6,3.7,344.4z M3,329.1c0-0.4,0.4-0.8,0.8-0.7l0,0c0.5,0,0.7,0.3,0.8,0.7l0,0c0,0.4-0.4,0.8-0.8,0.8l0,0
				c0,0-0.2,0-0.3,0l0,0C3.2,329.7,3,329.4,3,329.1z M4.1,313.8c0-0.4,0.4-0.7,0.8-0.7l0,0c0.4,0.1,0.8,0.4,0.7,0.9l0,0
				c0,0.4-0.4,0.7-0.9,0.7l0,0c0,0-0.1-0.1-0.2-0.1l0,0C4.2,314.4,4,314.1,4.1,313.8z M6.6,298.7c0.1-0.5,0.5-0.7,0.9-0.6l0,0
				c0.4,0.1,0.7,0.5,0.6,0.9l0,0c-0.1,0.4-0.5,0.7-0.9,0.6l0,0c0,0-0.1,0-0.1,0l0,0C6.8,299.4,6.6,299,6.6,298.7z M10.8,283.9
				c0.1-0.4,0.6-0.6,0.9-0.5l0,0c0.4,0.1,0.6,0.6,0.5,1l0,0c-0.1,0.4-0.6,0.6-1,0.5l0,0l0,0l0,0C10.8,284.7,10.6,284.3,10.8,283.9z
				 M16.9,270.7c-0.4-0.2-0.5-0.6-0.4-1l0,0c0.2-0.4,0.6-0.5,1-0.4l0,0c0.4,0.2,0.6,0.7,0.4,1.1l0,0
				C17.7,270.7,17.3,270.9,16.9,270.7L16.9,270.7L16.9,270.7z M24.2,257.4c-0.3-0.2-0.4-0.7-0.2-1.1l0,0c0.2-0.4,0.7-0.5,1.1-0.2
				l0,0c0.3,0.2,0.4,0.7,0.2,1.1l0,0c-0.2,0.3-0.6,0.4-0.9,0.3l0,0C24.3,257.4,24.3,257.4,24.2,257.4z M33.3,245.1
				c-0.3-0.2-0.4-0.7-0.1-1.1l0,0c0.3-0.3,0.7-0.4,1.1-0.1l0,0c0.3,0.3,0.4,0.7,0.1,1.1l0,0c-0.2,0.2-0.6,0.3-0.9,0.2l0,0
				C33.5,245.2,33.4,245.1,33.3,245.1z M44,234.1c-0.3-0.3-0.2-0.8,0-1.1l0,0l0,0l0,0c0.3-0.3,0.8-0.2,1.1,0.1l0,0
				c0.3,0.3,0.3,0.8-0.1,1.1l0,0c-0.2,0.2-0.5,0.2-0.8,0.1l0,0C44.1,234.3,44,234.2,44,234.1z M56,224.8c-0.2-0.4-0.2-0.9,0.2-1.1
				l0,0l0,0l0,0c0.4-0.2,0.8-0.2,1.1,0.2l0,0c0.2,0.4,0.2,0.8-0.2,1.1l0,0c-0.2,0.1-0.5,0.1-0.7,0.1l0,0
				C56.2,225,56.1,224.9,56,224.8z M69.2,217.1c-0.2-0.4,0-0.9,0.4-1.1l0,0l0,0l0,0c0.4-0.2,0.8,0,1,0.3l0,0c0.2,0.4,0,0.9-0.4,1.1
				l0,0c-0.2,0.1-0.4,0.1-0.6,0l0,0C69.4,217.3,69.3,217.2,69.2,217.1z M83.2,211.2c-0.1-0.4,0.1-0.8,0.5-1l0,0
				c0.4-0.2,0.9,0.1,1,0.4l0,0c0.2,0.4-0.1,0.9-0.5,1l0,0c-0.2,0-0.4,0-0.5,0l0,0C83.5,211.6,83.3,211.4,83.2,211.2z M98,207.1
				c-0.1-0.4,0.2-0.8,0.6-0.9l0,0c0.4-0.1,0.8,0.2,0.9,0.6l0,0c0.1,0.4-0.2,0.8-0.6,0.9l0,0c-0.1,0-0.3,0-0.4-0.1l0,0
				C98.2,207.5,98,207.3,98,207.1z M113.1,204.7c-0.1-0.4,0.3-0.8,0.7-0.8l0,0c0.4-0.1,0.8,0.3,0.8,0.7l0,0c0,0.5-0.3,0.8-0.7,0.9
				l0,0c-0.1,0-0.2,0-0.3-0.1l0,0C113.3,205.3,113.1,205,113.1,204.7z M128.3,204.1c0-0.4,0.4-0.8,0.8-0.8l0,0
				c0.4,0,0.7,0.3,0.7,0.8l0,0c0,0.4-0.4,0.7-0.7,0.8l0,0c-0.1,0-0.2,0-0.3-0.1l0,0C128.5,204.6,128.3,204.4,128.3,204.1z
				 M143.5,204.9c0.1-0.4,0.4-0.8,0.8-0.7l0,0c0.4,0,0.8,0.4,0.7,0.8l0,0c0,0.4-0.4,0.7-0.8,0.7l0,0c0,0-0.1-0.1-0.2-0.1l0,0
				C143.7,205.5,143.5,205.2,143.5,204.9z M158.8,206.5c0.1-0.4,0.5-0.8,0.9-0.7l0,0c0.4,0.1,0.7,0.4,0.6,0.9l0,0
				c0,0.4-0.4,0.7-0.9,0.7l0,0c0,0-0.1,0-0.2-0.1l0,0C158.9,207.2,158.7,206.8,158.8,206.5z M173.9,208.7c0.1-0.4,0.4-0.7,0.9-0.7
				l0,0c0.4,0.1,0.7,0.5,0.6,0.9l0,0c-0.1,0.4-0.5,0.7-0.9,0.6l0,0c-0.1,0-0.1,0-0.2,0l0,0C174,209.4,173.8,209,173.9,208.7z
				 M189,211.1c0.1-0.4,0.5-0.6,0.9-0.6l0,0c0.4,0.1,0.7,0.4,0.6,0.8l0,0c-0.1,0.4-0.4,0.7-0.9,0.7l0,0c0,0-0.1,0-0.1-0.1l0,0
				C189.2,211.8,188.9,211.4,189,211.1z M204.1,213.7c0.1-0.4,0.5-0.7,0.9-0.6l0,0c0.4,0.1,0.7,0.4,0.6,0.9l0,0
				c-0.1,0.4-0.5,0.7-0.9,0.6l0,0c0,0-0.1,0-0.1-0.1l0,0C204.2,214.3,204,214,204.1,213.7z M219.2,216.3c0.1-0.4,0.4-0.7,0.8-0.6
				l0,0c0.4,0.1,0.7,0.5,0.6,0.9l0,0c-0.1,0.4-0.5,0.7-0.9,0.6l0,0c-0.1,0-0.1,0-0.2,0l0,0C219.2,217,219,216.7,219.2,216.3z"/>
		</g>
	</g>
</g>
</svg>
