<?xml version="1.0" encoding="utf-8"?>
<!-- Generator: Adobe Illustrator 17.1.0, SVG Export Plug-In . SVG Version: 6.00 Build 0)  -->
<!DOCTYPE svg PUBLIC "-//W3C//DTD SVG 1.1//EN" "http://www.w3.org/Graphics/SVG/1.1/DTD/svg11.dtd">
<svg version="1.1" id="Layer_1" xmlns="http://www.w3.org/2000/svg" xmlns:xlink="http://www.w3.org/1999/xlink" x="0px" y="0px"
	 viewBox="0 0 67.9 28.3" enable-background="new 0 0 67.9 28.3" xml:space="preserve">
<g id="YouTube_logo_dark_color_2_">
	<path id="u_8_" fill="#FFFFFF" d="M25.4,22.9h-2.6v-1.5c-1,1.1-1.8,1.7-2.7,1.7c-0.8,0-1.3-0.4-1.6-1c-0.2-0.4-0.3-1.1-0.3-2V9.2
		h2.6v10.2c0,0.6,0,0.8,0,0.9c0.1,0.4,0.2,0.5,0.5,0.5c0.5,0,0.9-0.4,1.5-1.2V9.2h2.6V22.9z"/>
	<path id="o_3_" fill="#FFFFFF" d="M16.3,13.7c0-1.5-0.3-2.6-0.8-3.3c-0.7-0.9-1.8-1.3-2.8-1.3c-1.2,0-2.2,0.4-2.8,1.3
		C9.2,11.2,9,12.3,9,13.7l0,4.9c0,1.5,0.3,2.5,0.8,3.1c0.7,0.9,1.8,1.4,2.9,1.4c1.1,0,2.2-0.5,2.9-1.4c0.5-0.7,0.8-1.7,0.8-3.1V13.7
		z M13.7,18.9c0.1,1.4-0.3,2-1.1,2c-0.8,0-1.2-0.7-1.1-2v-5.4c-0.1-1.4,0.3-2,1.1-2s1.2,0.6,1.1,2L13.7,18.9z"/>
	<path id="y_3_" fill="#FFFFFF" d="M6.1,15.5v7.5H3.4v-7.5c0,0-2.8-9.1-3.4-10.8h2.8l1.9,7.1l1.9-7.1h2.8L6.1,15.5z"/>
	<g>
		<path fill="#FFFFFF" d="M51.8,11.4c-0.4,0-0.9,0.2-1.3,0.6l0,8.2c0.4,0.4,0.9,0.6,1.3,0.6c0.7,0,1-0.5,1-1.9v-5.8
			C52.9,11.8,52.6,11.4,51.8,11.4z"/>
		<path fill="#FFFFFF" d="M62,13.1c0-1.3-0.3-1.6-1.1-1.6c-0.8,0-1.2,0.3-1.2,1.6v1.5l2.3,0V13.1z"/>
		<path fill="#FFFFFF" d="M67.5,6.1c0,0-0.4-2.8-1.6-4c-1.5-1.6-3.3-1.6-4.1-1.7C56.2,0,47.7,0,47.7,0h0c0,0-8.5,0-14.2,0.4
			c-0.8,0.1-2.5,0.1-4.1,1.7c-1.2,1.2-1.6,4-1.6,4s-0.4,3.3-0.4,6.5v3.1c0,3.3,0.4,6.5,0.4,6.5s0.4,2.8,1.6,4
			c1.5,1.6,3.6,1.6,4.5,1.7c3.2,0.3,13.8,0.4,13.8,0.4s8.5,0,14.2-0.4c0.8-0.1,2.5-0.1,4.1-1.7c1.2-1.2,1.6-4,1.6-4s0.4-3.3,0.4-6.5
			v-3.1C67.9,9.4,67.5,6.1,67.5,6.1z M36.3,22.9h-2.7V7.3h-2.8V4.8l8.5,0v2.6h-3V22.9z M46.1,22.9h-2.6v-1.5c-1,1.1-1.8,1.7-2.7,1.7
			c-0.8,0-1.3-0.4-1.6-1c-0.2-0.4-0.3-1.1-0.3-2V9.4h2.6v10c0,0.6,0,0.8,0,0.9c0.1,0.4,0.2,0.5,0.5,0.5c0.5,0,0.9-0.4,1.5-1.2V9.4
			h2.6V22.9z M55.5,18.9c0,1.3-0.1,2.1-0.3,2.7c-0.3,1-1,1.5-2,1.5c-0.9,0-1.8-0.5-2.6-1.5l0,1.4h-2.4V4.8h2.4l0,5.9
			c0.8-1,1.7-1.5,2.6-1.5c1,0,1.6,0.6,2,1.6c0.2,0.5,0.3,1.4,0.3,2.7V18.9z M60.8,20.9c0.6,0,1-0.3,1.1-1c0-0.1,0-0.7,0-1.7h2.6v0.4
			c0,0.8-0.1,1.4-0.1,1.6c-0.1,0.5-0.3,1-0.6,1.5c-0.7,1-1.7,1.5-3,1.5c-1.3,0-2.3-0.5-3-1.4c-0.5-0.7-0.9-1.7-0.9-3.1v-4.7
			c0-1.4,0.3-2.6,0.8-3.3c0.7-0.9,1.7-1.4,2.9-1.4c1.2,0,2.2,0.5,2.9,1.4c0.5,0.7,0.8,1.7,0.8,3.2l0,2.8h-4.9V19
			C59.6,20.3,60,20.9,60.8,20.9z"/>
	</g>
</g>
</svg>
