<?xml version="1.0" encoding="utf-8"?>
<!-- Generator: Adobe Illustrator 17.1.0, SVG Export Plug-In . SVG Version: 6.00 Build 0)  -->
<!DOCTYPE svg PUBLIC "-//W3C//DTD SVG 1.1//EN" "http://www.w3.org/Graphics/SVG/1.1/DTD/svg11.dtd">
<svg version="1.1" id="Layer_1" xmlns="http://www.w3.org/2000/svg" xmlns:xlink="http://www.w3.org/1999/xlink" x="0px" y="0px"
	 viewBox="0 0 28.3 23" enable-background="new 0 0 28.3 23" xml:space="preserve">
<path fill="#FFFFFF" d="M28.3,2.7c-1,0.5-2.2,0.8-3.3,0.9c1.2-0.7,2.1-1.9,2.6-3.2c-1.1,0.7-2.4,1.2-3.7,1.4C22.8,0.7,21.3,0,19.6,0
	c-3.2,0-5.8,2.6-5.8,5.8c0,0.5,0.1,0.9,0.2,1.3C9.1,6.9,4.8,4.6,2,1.1C1.5,1.9,1.2,2.9,1.2,4c0,2,1,3.8,2.6,4.8
	c-1,0-1.8-0.3-2.6-0.7c0,0,0,0,0,0.1c0,2.8,2,5.2,4.7,5.7c-0.5,0.1-1,0.2-1.5,0.2c-0.4,0-0.7,0-1.1-0.1c0.7,2.3,2.9,4,5.4,4
	c-2,1.6-4.5,2.5-7.2,2.5c-0.5,0-0.9,0-1.4-0.1C2.6,22.1,5.6,23,8.9,23c10.7,0,16.5-8.9,16.5-16.5c0-0.3,0-0.5,0-0.8
	C26.6,4.9,27.6,3.9,28.3,2.7z"/>
</svg>
