<?xml version="1.0" encoding="utf-8"?>
<!-- Generator: Adobe Illustrator 18.0.0, SVG Export Plug-In . SVG Version: 6.00 Build 0)  -->
<!DOCTYPE svg PUBLIC "-//W3C//DTD SVG 1.1//EN" "http://www.w3.org/Graphics/SVG/1.1/DTD/svg11.dtd">
<svg version="1.1" id="Layer_1" xmlns="http://www.w3.org/2000/svg" xmlns:xlink="http://www.w3.org/1999/xlink" x="0px" y="0px"
	 viewBox="0 0 15 15" enable-background="new 0 0 15 15" xml:space="preserve">
<g>
	<rect x="3" fill="#AFABA8" width="2" height="1"/>
	<rect x="10" y="14" fill="#AFABA8" width="2" height="1"/>
	<polygon fill="#AFABA8" points="5.3,8.3 2,11.6 2,9 0,9 0,13 0,15 0,15 2,15 6,15 6,13 3.4,13 6.7,9.7 	"/>
	<polygon fill="#AFABA8" points="13,0 9,0 9,2 11.6,2 8.5,5.1 9.9,6.5 13,3.4 13,6 15,6 15,2 15,0 	"/>
	<rect y="3" fill="#AFABA8" width="1" height="2"/>
	<polygon fill="#AFABA8" points="1,1 2,1 2,0 1,0 0,0 0,1 0,2 1,2 	"/>
	<polygon fill="#AFABA8" points="14,14 13,14 13,15 14,15 15,15 15,14 15,13 14,13 	"/>
	<rect x="14" y="10" fill="#AFABA8" width="1" height="2"/>
</g>
</svg>
