<?xml version="1.0" encoding="utf-8"?>
<!-- Generator: Adobe Illustrator 17.1.0, SVG Export Plug-In . SVG Version: 6.00 Build 0)  -->
<!DOCTYPE svg PUBLIC "-//W3C//DTD SVG 1.1//EN" "http://www.w3.org/Graphics/SVG/1.1/DTD/svg11.dtd">
<svg version="1.1" id="Layer_1" xmlns="http://www.w3.org/2000/svg" xmlns:xlink="http://www.w3.org/1999/xlink" x="0px" y="0px"
	 viewBox="0 0 102 102" enable-background="new 0 0 102 102" xml:space="preserve">
<path fill="#02343F" d="M1,1v100h100V1H1z M17,61.5c-1.6-4-2.4-8.2-2.4-12.5c0-10.5,4.9-20.2,13.2-26.5l-4.5-4.9
	c5.8,2,14,2.6,20.4,2.4c-4.7,4.3-10.1,10.6-12.8,16l-0.2-5.4c-5.1,4.7-8,11.3-8,18.4c0,3.3,0.6,6.5,1.8,9.5L17,61.5z M47.9,82.4
	c-4.5,0-9-1-13.2-2.8l-2.1,6.4c-1.1-6-4.5-13.5-7.8-19c6,2,14.2,3.6,20.2,3.3l-4.6,2.8c2.4,0.7,4.9,1.2,7.5,1.2
	c7.9,0,15.1-3.6,20-9.8l6.4,4.9C67.9,77.7,58.3,82.4,47.9,82.4z M75,60.2C73.7,54,71,46.1,67.7,41l4.9,2.6
	C70.4,33.5,62,25.5,51.5,24l1.1-8C67.7,18.2,79.3,30.3,81,45.2l6.4-1.3C82.8,47.9,78,54.6,75,60.2z"/>
</svg>
