<?xml version="1.0" encoding="utf-8"?>
<!-- Generator: Adobe Illustrator 17.1.0, SVG Export Plug-In . SVG Version: 6.00 Build 0)  -->
<!DOCTYPE svg PUBLIC "-//W3C//DTD SVG 1.1//EN" "http://www.w3.org/Graphics/SVG/1.1/DTD/svg11.dtd">
<svg version="1.1" id="Layer_1" xmlns="http://www.w3.org/2000/svg" xmlns:xlink="http://www.w3.org/1999/xlink" x="0px" y="0px"
	 viewBox="161 -32 642 624" enable-background="new 161 -32 642 624" xml:space="preserve">
<g>
	<path fill="#02343F" d="M364.9,560c0-3.1,0-6.2,0-9.3c0-87.1-71.6-158.7-161.8-158.7H200v168H364.9z"/>
	<path fill="#02343F" d="M203.1,308c133.8,0,245.8,108.9,245.8,242.7c0,3.1,0,6.2,0,9.3H564c0-3.1,0-6.2,0-9.3
		c0-196-161.8-354.7-357.8-354.7h-3.1L203.1,308C200,308,203.1,308,203.1,308z"/>
	<path fill="#02343F" d="M203.1,112c242.7,0,441.8,196,441.8,438.7c0,3.1,0,6.2,0,9.3H760c0-3.1,0-6.2,0-9.3
		C760,248.9,511.1,0,203.1,0H200L203.1,112C200,112,203.1,112,203.1,112z"/>
</g>
</svg>
