<?xml version="1.0" encoding="utf-8"?>
<!-- Generator: Adobe Illustrator 17.1.0, SVG Export Plug-In . SVG Version: 6.00 Build 0)  -->
<!DOCTYPE svg PUBLIC "-//W3C//DTD SVG 1.1//EN" "http://www.w3.org/Graphics/SVG/1.1/DTD/svg11.dtd">
<svg version="1.1" id="Layer_1" xmlns="http://www.w3.org/2000/svg" xmlns:xlink="http://www.w3.org/1999/xlink" x="0px" y="0px"
	 viewBox="80 -19 798 606" enable-background="new 80 -19 798 606" xml:space="preserve">
<g>
	<path fill="#02343F" d="M526.7,301.8L809.8,9.3C800.4,3.1,791.1,0,778.7,0H181.3c-9.3,0-18.7,3.1-28,9.3l283.1,292.4
		C461.3,326.7,501.8,326.7,526.7,301.8z"/>
	<path fill="#02343F" d="M109.8,59.1c-3.1,3.1-3.1,9.3-3.1,15.6v413.8c0,9.3,3.1,18.7,6.2,24.9l217.8-224L109.8,59.1z"/>
	<path fill="#02343F" d="M850.2,62.2c3.1,3.1,3.1,9.3,3.1,15.6v413.8c0,9.3-3.1,18.7-6.2,24.9l-217.8-224L850.2,62.2z"/>
	<path fill="#02343F" d="M554.7,357.8c-18.7,21.8-46.7,31.1-71.6,31.1s-52.9-9.3-71.6-31.1l-28-31.1L162.7,553.8
		c3.1,3.1,9.3,6.2,18.7,6.2h600.4c6.2,0,15.6-3.1,21.8-3.1L582.7,329.8L554.7,357.8z"/>
</g>
</svg>
