<?xml version="1.0" encoding="utf-8"?>
<!-- Generator: Adobe Illustrator 17.1.0, SVG Export Plug-In . SVG Version: 6.00 Build 0)  -->
<!DOCTYPE svg PUBLIC "-//W3C//DTD SVG 1.1//EN" "http://www.w3.org/Graphics/SVG/1.1/DTD/svg11.dtd">
<svg version="1.1" id="Layer_1" xmlns="http://www.w3.org/2000/svg" xmlns:xlink="http://www.w3.org/1999/xlink" x="0px" y="0px"
	 viewBox="0 0 34 30" enable-background="new 0 0 34 30" xml:space="preserve">
<g>
	<path fill="#FFFFFF" d="M33,30H1c-0.6,0-1-0.4-1-1v-4c0-0.6,0.4-1,1-1h32c0.6,0,1,0.4,1,1v4C34,29.6,33.6,30,33,30z"/>
	<path fill="#FFFFFF" d="M33,18H1c-0.6,0-1-0.4-1-1v-4c0-0.6,0.4-1,1-1h32c0.6,0,1,0.4,1,1v4C34,17.6,33.6,18,33,18z"/>
	<path fill="#FFFFFF" d="M33,6H1C0.4,6,0,5.6,0,5V1c0-0.6,0.4-1,1-1h32c0.6,0,1,0.4,1,1v4C34,5.6,33.6,6,33,6z"/>
</g>
</svg>
