<?xml version="1.0" encoding="utf-8"?>
<!-- Generator: Adobe Illustrator 17.1.0, SVG Export Plug-In . SVG Version: 6.00 Build 0)  -->
<!DOCTYPE svg PUBLIC "-//W3C//DTD SVG 1.1//EN" "http://www.w3.org/Graphics/SVG/1.1/DTD/svg11.dtd">
<svg version="1.1" id="Layer_1" xmlns="http://www.w3.org/2000/svg" xmlns:xlink="http://www.w3.org/1999/xlink" x="0px" y="0px"
	 viewBox="0 0 100 100" enable-background="new 0 0 100 100" xml:space="preserve">
<path fill="#FFFFFF" d="M92.6,0H7.4C3.2,0,0,3.2,0,7.1v85.9c0,3.9,3.2,7.1,7.4,7.1h85.2c4.2,0,7.4-3.2,7.4-7.1V7.1
	C100,3.2,96.8,0,92.6,0z M30.3,83.7H15.1V38.5h15.1V83.7z M22.9,32.5c-5.3,0-8.5-3.5-8.5-7.8c0-4.6,3.2-7.8,8.5-7.8
	c5.3,0,8.5,3.2,8.5,7.8C31.3,29,28.2,32.5,22.9,32.5z M84.5,83.7H69.7v-24c0-6-2.5-10.2-7.7-10.2c-4.2,0-6.7,2.8-7.7,5.7
	c-0.4,0.7-0.4,2.1-0.4,3.5v25.1H38.7c0,0,0-41,0-45.2h14.8v6.7c2.1-3.2,5.6-7.8,13.7-7.8c9.9,0,17.3,6.7,17.3,20.5V83.7z"/>
</svg>
