<?xml version="1.0" encoding="utf-8"?>
<!-- Generator: Adobe Illustrator 17.1.0, SVG Export Plug-In . SVG Version: 6.00 Build 0)  -->
<!DOCTYPE svg PUBLIC "-//W3C//DTD SVG 1.1//EN" "http://www.w3.org/Graphics/SVG/1.1/DTD/svg11.dtd">
<svg version="1.1" id="Layer_1" xmlns="http://www.w3.org/2000/svg" xmlns:xlink="http://www.w3.org/1999/xlink" x="0px" y="0px"
	 viewBox="0 0 28.3 28.3" enable-background="new 0 0 28.3 28.3" xml:space="preserve">
<path id="White_2_" fill="#FFFFFF" d="M26.8,0H1.6C0.7,0,0,0.7,0,1.6v25.2c0,0.9,0.7,1.6,1.6,1.6h13.6v-11h-3.7v-4.3h3.7V9.9
	c0-3.7,2.2-5.7,5.5-5.7c1.6,0,2.9,0.1,3.3,0.2v3.8l-2.3,0c-1.8,0-2.1,0.8-2.1,2.1v2.7h4.2l-0.6,4.3h-3.7v11h7.2
	c0.9,0,1.6-0.7,1.6-1.6V1.6C28.3,0.7,27.6,0,26.8,0z"/>
</svg>
